<?xml version="1.0" encoding="utf-8"?>
<!-- Generator: Adobe Illustrator 24.0.1, SVG Export Plug-In . SVG Version: 6.00 Build 0)  -->
<svg version="1.1" id="Capa_1" xmlns="http://www.w3.org/2000/svg" xmlns:xlink="http://www.w3.org/1999/xlink" x="0px" y="0px"
	 viewBox="0 0 110 150" style="enable-background:new 0 0 110 150;" xml:space="preserve">
<style type="text/css">
	.st0{fill:#3883FD;stroke:#000000;stroke-width:2;stroke-miterlimit:10;}
	.st1{fill:none;stroke:#000000;stroke-width:2;stroke-miterlimit:10;}
	.st2{fill:#FFFFFF;stroke:#000000;stroke-width:2;stroke-miterlimit:10;}
	.st3{fill:#B765FF;stroke:#000000;stroke-width:2;stroke-miterlimit:10;}
</style>
<g>
	<path class="st0" d="M104.45,55.83c-0.94-2.03-1.12-4.31-0.73-6.5c0.21-1.15,0.32-2.33,0.32-3.55c0-6.96-3.48-13.1-8.78-16.8
		c-2.51-1.75-3.92-4.63-4.03-7.68c-0.08-2.08-0.5-4.23-1.39-6.46C86.82,7.24,79.66,1.82,71.5,1.51c-5.21-0.19-9.99,1.56-13.7,4.58
		c-2.65,2.16-6.41,2.6-9.43,1.01c-2.85-1.5-6.1-2.36-9.54-2.36c-7.79,0-14.56,4.35-18.03,10.74c-1.11,2.05-2.92,3.62-5.1,4.43
		C7.86,22.79,2.27,30.31,2.27,39.15c0,2.92,0.61,5.68,1.72,8.19c1.22,2.78,1.51,5.92,0.59,8.81c-0.85,2.64-1.28,5.47-1.22,8.41
		c0.3,13.99,12.22,25.4,26.21,25.13c13.95-0.28,25.17-11.67,25.17-25.69c0-4.52-1.18-8.77-3.23-12.46
		c3.28,2.23,7.24,3.54,11.51,3.54c0.18,0,0.34-0.02,0.52-0.03c-1.7,3.32-2.63,7.12-2.49,11.14c0.41,11.83,10.23,21.62,22.06,21.97
		c12.89,0.39,23.46-9.95,23.46-22.76C106.56,61.99,105.81,58.75,104.45,55.83z"/>
	<path class="st1" d="M43.23,97.74c0.92-5.37,0.68-10.9-0.74-16.19l0,0h24.46l0,0c-1.41,5.3-1.66,10.81-0.74,16.19"/>
	<path class="st2" d="M107.18,148.5H2.27v-27.61c0-12.79,10.37-23.15,23.15-23.15h17.81l1.94,1.68c5.48,4.77,13.64,4.77,19.12,0
		l1.94-1.68h17.81c12.79,0,23.15,10.37,23.15,23.15L107.18,148.5L107.18,148.5z"/>
	<path class="st3" d="M38.91,29.64h31.63c7.13,0,12.91,5.78,12.91,12.91V54.9c0,9.17-4.12,17.86-11.23,23.66l-10.7,8.73
		c-1.92,1.57-4.32,2.42-6.79,2.42l0,0c-2.48,0-4.88-0.86-6.79-2.42l-10.7-8.73C30.12,72.76,26,64.07,26,54.9V42.55
		C26,35.42,31.78,29.64,38.91,29.64z"/>
</g>
</svg>
