<?xml version="1.0" encoding="utf-8"?>
<!-- Generator: Adobe Illustrator 24.0.1, SVG Export Plug-In . SVG Version: 6.00 Build 0)  -->
<svg version="1.1" id="Capa_1" xmlns="http://www.w3.org/2000/svg" xmlns:xlink="http://www.w3.org/1999/xlink" x="0px" y="0px"
	 viewBox="0 0 363 150" style="enable-background:new 0 0 363 150;" xml:space="preserve">
<style type="text/css">
	.st0{fill:none;stroke:#000000;stroke-width:2;stroke-miterlimit:10;}
	.st1{fill:#FF5E84;stroke:#000000;stroke-width:2;stroke-miterlimit:10;}
	.st2{fill:#FFFFFF;stroke:#000000;stroke-width:2;stroke-miterlimit:10;}
	.st3{fill:#27FD91;stroke:#000000;stroke-width:2;stroke-miterlimit:10;}
</style>
<g>
	<g>
		<path class="st0" d="M79.81,88.68c-0.75,7.45-0.47,15.08,0.86,22.4l0,0H68.53H56.39l0,0c1.33-7.32,1.62-14.95,0.86-22.4l0,0h-20.6
			c-19.05,0-34.5-15.44-34.5-34.5l0,0c0-7.6,6.16-13.76,13.76-13.76l0,0c5.64,0,10.77-3.42,12.79-8.68
			C34.83,15.72,50.35,4.34,68.53,4.34s33.7,11.38,39.83,27.41c2.01,5.26,7.15,8.68,12.79,8.68h0.26c7.6,0,13.76,6.16,13.76,13.76
			l0,0c0,19.05-15.44,34.5-34.5,34.5H79.81L79.81,88.68z"/>
		<path class="st1" d="M120.59,148.99H16.47v-19.88c0-16.84,13.65-30.49,30.49-30.49h10.15l4.97,6.46c3.25,4.23,9.63,4.23,12.89,0
			l4.97-6.46H90.1c16.84,0,30.49,13.65,30.49,30.49L120.59,148.99L120.59,148.99z"/>
		<path class="st0" d="M52.83,35.15h31.39c7.08,0,12.81,5.74,12.81,12.81v12.25c0,9.1-4.09,17.72-11.14,23.48l-10.62,8.67
			c-1.9,1.55-4.28,2.4-6.74,2.4l0,0c-2.46,0-4.84-0.85-6.74-2.4l-10.62-8.67c-7.05-5.76-11.14-14.37-11.14-23.48V47.96
			C40.03,40.88,45.76,35.15,52.83,35.15z"/>
	</g>
	<g>
		<path class="st0" d="M176.49,84.39c1.4,5.26,1.62,8.89,0.71,14.22h-17.65c-12.69,0-22.98,10.29-22.98,22.98v27.4h104.11v-27.4
			c0-12.69-10.29-22.98-22.98-22.98h-17.65c-0.91-5.33-0.68-8.97,0.71-14.22"/>
		<g>
			<path class="st2" d="M231.06,43.43C231.06,20,212.06,1,188.63,1S146.2,19.99,146.2,43.43c0,19.38,13,35.71,30.75,40.79
				l-5.68-4.63c-7.05-5.76-11.14-14.37-11.14-23.48V43.85c0-7.08,5.74-12.81,12.81-12.81h31.39c7.08,0,12.81,5.74,12.81,12.81v12.25
				c0,9.1-4.09,17.72-11.14,23.48l-5.68,4.63C218.07,79.14,231.06,62.81,231.06,43.43z"/>
			<path class="st0" d="M176.95,84.22l4.94,4.03c1.9,1.55,4.28,2.4,6.74,2.4c2.46,0,4.84-0.85,6.74-2.4l4.94-4.03"/>
		</g>
		<polyline class="st0" points="160.25,98.62 160.25,119.93 188.64,132.85 217.01,119.93 217.01,98.62 		"/>
	</g>
	<path class="st0" d="M297.79,89.14c0.26,3.16,0.12,6.34-0.41,9.49h-25.47c-8.38,0-15.18,6.8-15.18,15.18V149h104.11v-35.19
		c0-8.38-6.8-15.18-15.18-15.18h-25.47c-0.53-3.13-0.67-6.32-0.41-9.49"/>
	<path class="st0" d="M337.18,48.04v22.19c0,3.13-1.18,6.15-3.31,8.46l-5.93,6.42c-2.36,2.56-5.69,4.02-9.16,4.02h-19.96
		c-3.48,0-6.8-1.46-9.16-4.02l-5.93-6.42c-2.13-2.31-3.31-5.33-3.31-8.46V48.04"/>
	<polyline class="st0" points="280.41,36.8 280.41,23.48 337.18,23.48 337.18,36.8 	"/>
	<rect x="280.41" y="7.67" class="st0" width="56.76" height="15.81"/>
	<path class="st0" d="M297.38,98.38c0,0,10.98,19.2,11.31,18.82c0.33-0.38,11.51-18.82,11.51-18.82"/>
	<g>
		<g>
			<rect x="276.63" y="36.98" class="st3" width="27.67" height="11.25"/>
			<rect x="313.3" y="36.98" class="st3" width="27.67" height="11.25"/>
		</g>
		<line class="st0" x1="304.29" y1="42.6" x2="313.3" y2="42.6"/>
	</g>
</g>
</svg>
