<?xml version="1.0" encoding="utf-8"?>
<!-- Generator: Adobe Illustrator 24.0.1, SVG Export Plug-In . SVG Version: 6.00 Build 0)  -->
<svg version="1.1" id="Capa_1" xmlns="http://www.w3.org/2000/svg" xmlns:xlink="http://www.w3.org/1999/xlink" x="0px" y="0px"
	 viewBox="0 0 229 150" style="enable-background:new 0 0 229 150;" xml:space="preserve">
<style type="text/css">
	.st0{fill:#FFFFFF;stroke:#000000;stroke-width:2;stroke-miterlimit:10;}
	.st1{fill:none;stroke:#1D1D1B;stroke-width:2;stroke-miterlimit:10;}
	.st2{fill:none;stroke:#000000;stroke-width:2;stroke-miterlimit:10;}
	.st3{fill:#FF5E84;stroke:#000000;stroke-width:2;stroke-miterlimit:10;}
</style>
<g>
	<g>
		<rect x="19.41" y="7.98" class="st0" width="189.59" height="121.49"/>
		<rect x="13.4" y="1.5" class="st1" width="202.51" height="134.45"/>
		<rect x="2.57" y="135.95" class="st1" width="224.16" height="12.55"/>
	</g>
	<g>
		<path class="st2" d="M122.23,86.65c-0.53,5.23-0.33,10.59,0.61,15.73l0,0h-8.53h-8.52l0,0c0.93-5.14,1.13-10.5,0.61-15.73l0,0
			H91.93c-13.38,0-24.22-10.84-24.22-24.22l0,0c0-5.33,4.33-9.66,9.66-9.66l0,0c3.96,0,7.56-2.4,8.98-6.09
			c4.31-11.26,15.2-19.24,27.97-19.24s23.67,7.99,27.97,19.24c1.41,3.7,5.02,6.09,8.98,6.09h0.18c5.33,0,9.66,4.33,9.66,9.66l0,0
			c0,13.38-10.84,24.22-24.22,24.22H122.23L122.23,86.65z"/>
		<path class="st3" d="M150.87,129H77.76v-13.96c0-11.82,9.58-21.41,21.41-21.41h7.13l3.49,4.54c2.28,2.97,6.76,2.97,9.05,0
			l3.49-4.54h7.13c11.82,0,21.41,9.58,21.41,21.41L150.87,129L150.87,129z"/>
		<path class="st2" d="M103.29,49.06h22.04c4.97,0,9,4.03,9,9v8.6c0,6.39-2.87,12.44-7.82,16.49l-7.46,6.08
			c-1.34,1.09-3.01,1.69-4.73,1.69l0,0c-1.73,0-3.4-0.6-4.73-1.69l-7.46-6.08c-4.95-4.04-7.82-10.09-7.82-16.49v-8.6
			C94.3,53.09,98.33,49.06,103.29,49.06z"/>
	</g>
</g>
</svg>
