<?xml version="1.0" encoding="utf-8"?>
<!-- Generator: Adobe Illustrator 24.0.1, SVG Export Plug-In . SVG Version: 6.00 Build 0)  -->
<svg version="1.1" id="Capa_1" xmlns="http://www.w3.org/2000/svg" xmlns:xlink="http://www.w3.org/1999/xlink" x="0px" y="0px"
	 viewBox="0 0 159 150" style="enable-background:new 0 0 159 150;" xml:space="preserve">
<style type="text/css">
	.st0{fill:none;stroke:#000000;stroke-width:2;stroke-miterlimit:10;}
	.st1{fill:#FF5E84;stroke:#000000;stroke-width:2;stroke-miterlimit:10;}
	.st2{fill:#B765FF;stroke:#000000;stroke-width:2;stroke-miterlimit:10;}
	.st3{fill:#27FD91;stroke:#000000;stroke-width:2;stroke-miterlimit:10;}
</style>
<g>
	<g>
		<path class="st0" d="M115.31,82.68c-1.2,6.64-1.56,13.51-1.07,20.3h28.72V41.93c0-22.33-18.1-40.43-40.43-40.43
			c-22.33,0-40.43,18.1-40.43,40.43v31.64l29.74,29.4c0.48-6.78,0.13-13.66-1.07-20.3"/>
		<path class="st1" d="M155.68,148.5H50.37v-20.11c0-17.03,13.8-30.84,30.84-30.84h10.27l5.03,6.54c3.29,4.28,9.74,4.28,13.04,0
			l5.03-6.54h10.27c17.03,0,30.84,13.8,30.84,30.84L155.68,148.5L155.68,148.5z"/>
		<path class="st0" d="M87.15,29.19h31.75c7.16,0,12.96,5.8,12.96,12.96v12.39c0,9.21-4.14,17.92-11.27,23.75l-10.74,8.76
			c-1.92,1.57-4.33,2.43-6.82,2.43l0,0c-2.49,0-4.89-0.86-6.82-2.43l-10.74-8.76c-7.13-5.82-11.27-14.54-11.27-23.75V42.15
			C74.19,34.99,79.99,29.19,87.15,29.19z"/>
	</g>
	<path class="st2" d="M68.7,82.68c-1.2,6.64-1.56,13.51-1.07,20.3h28.72V41.93c0-22.33-18.1-40.43-40.43-40.43
		c-22.33,0-40.43,18.1-40.43,40.43v61.04h29.74c0.48-6.78,0.13-13.66-1.07-20.3"/>
	<path class="st3" d="M109.08,148.5H3.76v-20.11c0-17.03,13.8-30.84,30.84-30.84h10.27l5.03,6.54c3.29,4.28,9.74,4.28,13.04,0
		l5.03-6.54h10.27c17.03,0,30.84,13.8,30.84,30.84L109.08,148.5L109.08,148.5z"/>
	<path class="st0" d="M40.55,29.19H72.3c7.16,0,12.96,5.8,12.96,12.96v12.39c0,9.21-4.14,17.92-11.27,23.75l-10.74,8.76
		c-1.92,1.57-4.33,2.43-6.82,2.43l0,0c-2.49,0-4.89-0.86-6.82-2.43l-10.74-8.76c-7.13-5.82-11.27-14.54-11.27-23.75V42.15
		C27.59,34.99,33.39,29.19,40.55,29.19z"/>
</g>
</svg>
