<svg xmlns="http://www.w3.org/2000/svg" xmlns:xlink="http://www.w3.org/1999/xlink" width="1021" height="663" viewBox="0 0 1021 663">
  <defs>
    <clipPath id="clip-path">
      <rect id="Rectángulo_102" data-name="Rectángulo 102" width="1190.4" height="841.9" transform="translate(0.1)"/>
    </clipPath>
    <clipPath id="clip-path-5">
      <rect id="Rectángulo_106" data-name="Rectángulo 106" width="1190.4" height="841.9" transform="translate(0.1 98)"/>
    </clipPath>
    <clipPath id="clip-Web_1920_1">
      <rect width="1021" height="663"/>
    </clipPath>
  </defs>
  <g id="Web_1920_1" data-name="Web 1920 – 1" clip-path="url(#clip-Web_1920_1)">
    <g id="OPENEU_mapa" transform="translate(-116.5 -129.45)">
      <path id="Trazado_164" data-name="Trazado 164" d="M1035.5,760.6V767a1,1,0,0,1-1,1h-3.1a.908.908,0,0,0-.7.3l-11.2,11.2a.908.908,0,0,1-.7.3h-16.7a1,1,0,0,1-.7-1.7l13.5-13.6a1.08,1.08,0,0,1,.7-.3h2.2a.908.908,0,0,0,.7-.3l4.1-4.1a.908.908,0,0,1,.7-.3h11.2a1.272,1.272,0,0,1,1,1.1Z" fill="#fff"/>
      <path id="Trazado_165" data-name="Trazado 165" d="M1023.3,759.25h11.225l.024,0a1.511,1.511,0,0,1,1.2,1.345V767a1.253,1.253,0,0,1-1.25,1.25h-3.1a.662.662,0,0,0-.523.227l-11.2,11.2a1.16,1.16,0,0,1-.877.373h-16.7a1.212,1.212,0,0,1-1.136-.761,1.247,1.247,0,0,1,.26-1.365l13.5-13.6a1.327,1.327,0,0,1,.877-.374h2.2a.663.663,0,0,0,.523-.227l4.1-4.1A1.16,1.16,0,0,1,1023.3,759.25Zm11.174.5H1023.3a.663.663,0,0,0-.523.227l-4.1,4.1a1.16,1.16,0,0,1-.877.373h-2.2a.831.831,0,0,0-.523.227l-13.5,13.6a.749.749,0,0,0-.152.821.711.711,0,0,0,.674.453h16.7a.663.663,0,0,0,.523-.227l11.2-11.2a1.16,1.16,0,0,1,.877-.373h3.1a.752.752,0,0,0,.75-.75v-6.4A1.024,1.024,0,0,0,1034.474,759.75Z"/>
      <g id="Grupo_146" data-name="Grupo 146">
        <g id="Grupo_142" data-name="Grupo 142" clip-path="url(#clip-path)">
          <path id="Trazado_166" data-name="Trazado 166" d="M1493.9-171.9l-184-40.4a2.544,2.544,0,0,0-2.2.8l-42.9,43.1h-86.3a2.862,2.862,0,0,0-2.8,2.8V-61.3l-23.4,23.5L1127.9-62a2.836,2.836,0,0,0-4,0l-35,35.2a2.837,2.837,0,0,0,0,4l15.5,15.6-31,31.2-49.6-50V-60a2.792,2.792,0,0,0-.8-2L988.8-96.3v-15.2l14.7-14.7,59.2,59.5a2.837,2.837,0,0,0,4,0l50.3-50.5a2.837,2.837,0,0,0,0-4l-76.5-76.9a2.792,2.792,0,0,0-2-.8H798a2.973,2.973,0,0,0-2,.8L695.5-97.2a2.973,2.973,0,0,0-.8,2V-70L669.3-44.5a2.792,2.792,0,0,0-.8,2v34L546.8,113.8a2.922,2.922,0,0,0-.6,3.1,2.8,2.8,0,0,0,2.6,1.8H577L546.8,156a2.973,2.973,0,0,0-.8,2,2.792,2.792,0,0,0,.8,2l15.5,15.6-15.5,15.6a2.9,2.9,0,0,0,0,4l17.5,17.6a2.792,2.792,0,0,0,2,.8h35a2.792,2.792,0,0,0,2-.8l33-32,32.2,31.1V274a2.973,2.973,0,0,0,.8,2l13.1,13.2a2.837,2.837,0,0,0,4,0l61.7-66.1a2.792,2.792,0,0,0,.8-2V178.5l29.8-29.9a2.837,2.837,0,0,0,0-4l-31.8-31.9V73l66.3-60.7a2.792,2.792,0,0,0,.8-2v-34L846.1-56l35.4,35.6L800.4,61a2.973,2.973,0,0,0-.8,2v61.5a2.973,2.973,0,0,0,.8,2l39.4,39.6a2.837,2.837,0,0,0,4,0l56-56.3h23.9l40.9,41.1-14.7,14.8H863.6a2.973,2.973,0,0,0-2,.8l-17.5,17.6a2.792,2.792,0,0,0-.8,2v17.6a2.8,2.8,0,0,0,2.8,2.8h14.7v43.1l-21.4-21.5a2.837,2.837,0,0,0-4,0l-26.2,26.4a2.792,2.792,0,0,0-.8,2v49.9H776.2a2.973,2.973,0,0,0-2,.8L757.5,324H706.2a2.973,2.973,0,0,0-2,.8l-15.5,15.6-.5-.6-15-15a2.792,2.792,0,0,0-2-.8h-8.1l-14.7-14.8,15.5-15.6a2.973,2.973,0,0,0,.8-2,2.792,2.792,0,0,0-.8-2l-16.7-16.8v-34a2.973,2.973,0,0,0-.8-2L629,219.3a2.837,2.837,0,0,0-4,0l-17.5,17.6a2.973,2.973,0,0,0-.8,2V274a2.973,2.973,0,0,0,.8,2l16.7,16.7v48.7H566.3a2.973,2.973,0,0,0-2,.8l-17.5,17.6c-.1.1-.2.3-.3.4a3.022,3.022,0,0,0-.5,1.6v16.4l-20.8,20.9h0l-46.3,46.6-15.5-15.6a2.742,2.742,0,0,0-3.1-.6,2.712,2.712,0,0,0-1.7,2.6v23.5H417.7a2.8,2.8,0,0,0-2.6,1.8,2.332,2.332,0,0,0,0,2,2.589,2.589,0,0,0,.7,1.1l41.7,42L442,518.1a2.792,2.792,0,0,0-.8,2,4.252,4.252,0,0,0,.2,1.1,1.8,1.8,0,0,0,.6.9l16.7,16.7v48.7H338.9a2.973,2.973,0,0,0-2,.8l-17.5,17.6a2.792,2.792,0,0,0-.8,2v51.5l-16.6,17a3.176,3.176,0,0,0-.8,2,2.973,2.973,0,0,0,.8,2l16.7,16.7v34a2.8,2.8,0,0,0,2.8,2.8h51.3l16.7,16.7a2.837,2.837,0,0,0,4,0l16.7-16.7H444a2.973,2.973,0,0,0,2-.8l17.5-17.6a2.792,2.792,0,0,0,.8-2V697.1L481,680.4a2.973,2.973,0,0,0,.8-2V662l51.6-51.9a2.792,2.792,0,0,0,.8-2V591.7L548.9,577l15.5,15.6a2.837,2.837,0,0,0,4,0l19.7-19.8,10.5-10.6v10.7a2.8,2.8,0,0,0,2.8,2.8h16.3l85.8,86.2v16.4a2.8,2.8,0,0,0,2.8,2.8h12.9l-15.5,31.1a3.078,3.078,0,0,0,.1,2.8,2.813,2.813,0,0,0,2.4,1.3h17.5a1.268,1.268,0,0,0,.6-.1,2.851,2.851,0,0,0,1.4-.8l17.5-17.6a2.973,2.973,0,0,0,.8-2V663.5h14.7a1.268,1.268,0,0,0,.6-.1,2.8,2.8,0,0,0,2.2-2.8V643a2.792,2.792,0,0,0-.8-2l-85.5-85.9,14.7-14.7H705l16.7,16.8a2.792,2.792,0,0,0,2,.8H740l84.6,85.1-15.5,15.6a2.9,2.9,0,0,0,0,4l52.5,52.7a2.792,2.792,0,0,0,2,.8h17.5a2.8,2.8,0,0,0,2.8-2.8v-34l15.8-15.9h33.8a2.865,2.865,0,0,0,2.6-1.7,2.922,2.922,0,0,0-.6-3.1l-16.7-16.8V609.1l16.7-16.7a2.973,2.973,0,0,0,.8-2v-34l40.9-41.1,22.3,22.4L984,553.3a2.973,2.973,0,0,0-.8,2,2.792,2.792,0,0,0,.8,2l26.2,26.4a2.837,2.837,0,0,0,4,0l26.2-26.4a2.9,2.9,0,0,0,0-4l-15.5-15.6,39.7-40,22.2,22.4-33,33.2a2.762,2.762,0,0,0-.2,3.7l49.1,65.4,26.2,34.9h-89.4l-12.3-12.4a2.792,2.792,0,0,0-2-.8H986a2.792,2.792,0,0,0-2,.8l-54.7,54.9a2.837,2.837,0,0,0,0,4L975.2,750a2.792,2.792,0,0,0,2,.8h60l11.5,11.5v82.3a2.8,2.8,0,0,0,2.8,2.8h442a2.8,2.8,0,0,0,2.8-2.8V-169.1a2.6,2.6,0,0,0-2.4-2.8ZM1374.6,648.9l-8.7,107.3-106.5-51.7,42.4-45.2L1237,575.4l80.6-80.3,57.1,57.4-75.4,20.7,75.3,75.7Z" fill="#fff"/>
        </g>
        <g id="Grupo_143" data-name="Grupo 143" clip-path="url(#clip-path)">
          <path id="Trazado_167" data-name="Trazado 167" d="M1309.591-212.569h0a2.717,2.717,0,0,1,.34.021l.022,0,183.982,40.4a2.836,2.836,0,0,1,2.614,3.055V844.6a3.053,3.053,0,0,1-3.05,3.05h-442a3.053,3.053,0,0,1-3.05-3.05V762.4L1037.1,751.05H977.2a3.046,3.046,0,0,1-2.177-.873l-45.9-46.2a3.082,3.082,0,0,1,0-4.353l54.7-54.9A3.046,3.046,0,0,1,986,643.85h39.2a3.046,3.046,0,0,1,2.177.873L1039.6,657.05h88.8l-25.9-34.5-49.1-65.4a3,3,0,0,1,.221-4.03l32.824-33.024L1064.6,498.055,1025.252,537.7l15.325,15.424a3.149,3.149,0,0,1,0,4.353l-26.2,26.4a3.087,3.087,0,0,1-4.354,0l-26.2-26.4a3.046,3.046,0,0,1-.873-2.176,3.22,3.22,0,0,1,.873-2.177L999.147,537.7,977.2,515.654,936.55,556.5v33.9a3.22,3.22,0,0,1-.873,2.177L919.05,609.2V641.8l16.627,16.727a3.163,3.163,0,0,1,.658,3.362l0,.008a3.128,3.128,0,0,1-2.832,1.857H899.8L884.15,679.5v33.9a3.053,3.053,0,0,1-3.05,3.05H863.6a3.046,3.046,0,0,1-2.177-.873l-52.5-52.7a3.15,3.15,0,0,1,0-4.353L824.248,643.1,739.9,558.25H723.7a3.046,3.046,0,0,1-2.177-.873L704.9,540.65H690l-14.45,14.45,85.324,85.723A3.046,3.046,0,0,1,761.75,643v17.6a3.058,3.058,0,0,1-2.366,3.037,1.533,1.533,0,0,1-.684.113H744.25V695.8a3.219,3.219,0,0,1-.873,2.177l-17.5,17.6a3.1,3.1,0,0,1-1.5.862,1.535,1.535,0,0,1-.681.112H706.2a3.048,3.048,0,0,1-2.612-1.418l-.007-.011a3.318,3.318,0,0,1-.11-3.023l0-.01L718.8,681.35H706.3a3.053,3.053,0,0,1-3.05-3.05V662L617.6,575.95H601.4a3.053,3.053,0,0,1-3.05-3.05V562.807l-10.073,10.168-19.7,19.8a3.087,3.087,0,0,1-4.354,0L548.9,577.354,534.45,591.8v16.3a3.046,3.046,0,0,1-.873,2.177L482.05,662.1v16.3a3.219,3.219,0,0,1-.873,2.177L464.55,697.2v16.3a3.046,3.046,0,0,1-.873,2.177l-17.5,17.6a3.22,3.22,0,0,1-2.177.874H410.3l-16.627,16.627a3.087,3.087,0,0,1-4.354,0L372.7,734.15H321.5a3.053,3.053,0,0,1-3.05-3.05V697.2l-16.627-16.627a3.219,3.219,0,0,1-.873-2.177,3.439,3.439,0,0,1,.858-2.16l.013-.015L318.35,659.3V607.9a3.046,3.046,0,0,1,.873-2.177l17.5-17.6a3.22,3.22,0,0,1,2.177-.874H458.45V538.9l-16.61-16.611a2.1,2.1,0,0,1-.677-1.014l-.005-.018c-.017-.068-.034-.133-.05-.2a3.613,3.613,0,0,1-.157-.965,3.046,3.046,0,0,1,.873-2.177L457.148,502.5l-41.525-41.824a2.922,2.922,0,0,1-.758-1.188,2.6,2.6,0,0,1,0-2.182,3.055,3.055,0,0,1,2.832-1.956h40.65V432.1a2.972,2.972,0,0,1,1.856-2.832,2.925,2.925,0,0,1,1.209-.263,3.049,3.049,0,0,1,2.162.918L478.9,445.345l46.123-46.422L545.75,378.1V361.8a3.242,3.242,0,0,1,.536-1.729l.016-.026.022-.022a1.309,1.309,0,0,0,.119-.162,1.549,1.549,0,0,1,.181-.238l17.5-17.6a3.22,3.22,0,0,1,2.177-.874h57.65V292.8l-16.627-16.627A3.219,3.219,0,0,1,606.45,274V238.9a3.219,3.219,0,0,1,.873-2.177l17.5-17.6a3.087,3.087,0,0,1,4.354,0l17.4,17.5a3.219,3.219,0,0,1,.873,2.176v33.9l16.627,16.727a3.045,3.045,0,0,1,.873,2.176,3.22,3.22,0,0,1-.873,2.177L648.753,309.2,663.2,323.75h8a3.046,3.046,0,0,1,2.177.873l15.015,15.017.324.389,15.306-15.405a3.22,3.22,0,0,1,2.177-.874h51.2l16.627-16.726a3.22,3.22,0,0,1,2.177-.874h31.95V256.5a3.046,3.046,0,0,1,.873-2.177l26.2-26.4a3.087,3.087,0,0,1,4.354,0l20.973,21.071V206.75H846.1a3.053,3.053,0,0,1-3.05-3.05V186.1a3.046,3.046,0,0,1,.873-2.177l17.5-17.6a3.22,3.22,0,0,1,2.177-.874h86.2l14.452-14.55L923.6,110.05H899.9l-55.927,56.226a3.056,3.056,0,0,1-2.177.9h0a3.057,3.057,0,0,1-2.177-.9l-39.4-39.6a3.219,3.219,0,0,1-.873-2.176V63a3.22,3.22,0,0,1,.873-2.177L881.147-20.4,846.1-55.646,814.25-23.6V10.3a3.046,3.046,0,0,1-.873,2.177l-.008.008L747.15,73.11V112.6l31.727,31.827a3.082,3.082,0,0,1,0,4.353L749.15,178.6v42.5a3.046,3.046,0,0,1-.869,2.173l-61.7,66.1a3.087,3.087,0,0,1-4.354,0l-13.1-13.2A3.22,3.22,0,0,1,668.25,274V212.006L636.3,181.148,603.474,212.98a3.044,3.044,0,0,1-2.174.87h-35a3.046,3.046,0,0,1-2.177-.873l-17.5-17.6a3.15,3.15,0,0,1,0-4.353L561.948,175.6l-15.325-15.424A3.046,3.046,0,0,1,545.75,158a3.223,3.223,0,0,1,.863-2.167l29.863-36.883H548.8a3.055,3.055,0,0,1-2.835-1.964,3.164,3.164,0,0,1,.658-3.362L668.25-8.6V-42.5a3.047,3.047,0,0,1,.873-2.177L694.45-70.1V-95.2a3.22,3.22,0,0,1,.873-2.177l100.5-100.9A3.22,3.22,0,0,1,798-199.15h240.5a3.046,3.046,0,0,1,2.177.873l76.5,76.9a3.057,3.057,0,0,1,.9,2.176,3.056,3.056,0,0,1-.9,2.177l-50.3,50.5a3.057,3.057,0,0,1-2.177.9,3.057,3.057,0,0,1-2.177-.9L1003.5-125.846,989.05-111.4V-96.4l34.127,34.227A3.046,3.046,0,0,1,1024.05-60v33.9l49.35,49.748L1104.048-7.2l-15.325-15.424a3.057,3.057,0,0,1-.9-2.176,3.056,3.056,0,0,1,.9-2.177l35-35.2a3.145,3.145,0,0,1,2.215-.9,2.891,2.891,0,0,1,2.142.9L1152.3-38.153,1175.45-61.4V-165.6a3.061,3.061,0,0,1,.911-2.139,3.06,3.06,0,0,1,2.139-.911h86.2l42.82-43.019A2.756,2.756,0,0,1,1309.591-212.569Zm.267.516a2.259,2.259,0,0,0-.267-.016h0a2.242,2.242,0,0,0-1.7.729l-.015.016L1264.9-168.15h-86.4a2.617,2.617,0,0,0-2.55,2.55V-61.2L1152.3-37.447l-24.586-24.385a2.391,2.391,0,0,0-1.778-.743,2.641,2.641,0,0,0-1.861.752l-35,35.2a2.56,2.56,0,0,0-.752,1.824,2.561,2.561,0,0,0,.752,1.823L1104.752-7.2l-.175.176L1073.4,24.355l-.177-.179L1023.55-25.9V-60a2.55,2.55,0,0,0-.727-1.823L988.55-96.2V-111.6l14.95-14.95.177.178,59.2,59.5a2.559,2.559,0,0,0,1.823.751,2.559,2.559,0,0,0,1.823-.752l50.3-50.5a2.56,2.56,0,0,0,.752-1.823,2.561,2.561,0,0,0-.752-1.823l-76.5-76.9a2.549,2.549,0,0,0-1.823-.726H798a2.735,2.735,0,0,0-1.823.727l-100.5,100.9a2.734,2.734,0,0,0-.727,1.824v25.3l-.073.073-25.4,25.5a2.55,2.55,0,0,0-.727,1.823V-8.4l-.073.073-121.7,122.3a2.67,2.67,0,0,0-.542,2.839,2.547,2.547,0,0,0,2.365,1.635h28.724l-30.547,37.727A2.734,2.734,0,0,0,546.25,158a2.55,2.55,0,0,0,.727,1.823L562.652,175.6l-15.675,15.776a2.65,2.65,0,0,0,0,3.647l17.5,17.6a2.55,2.55,0,0,0,1.823.726h35a2.549,2.549,0,0,0,1.823-.727L636.3,180.452l32.45,31.342V274a2.734,2.734,0,0,0,.727,1.823l13.1,13.2a2.587,2.587,0,0,0,3.642,0l61.7-66.1a2.55,2.55,0,0,0,.727-1.823V178.4l.073-.073,29.8-29.9a2.581,2.581,0,0,0,0-3.647L746.65,112.8V72.89l.081-.074,66.3-60.7a2.551,2.551,0,0,0,.723-1.819V-23.8l.073-.073L846.1-56.355l.177.178L881.853-20.4l-.176.176-81.1,81.4A2.734,2.734,0,0,0,799.85,63v61.5a2.734,2.734,0,0,0,.727,1.823l39.4,39.6a2.587,2.587,0,0,0,3.646,0L899.7,109.55H923.8l.073.074L964.953,150.9l-.175.176L950,165.95H863.6a2.734,2.734,0,0,0-1.823.727l-17.5,17.6a2.55,2.55,0,0,0-.727,1.824v17.6a2.553,2.553,0,0,0,2.55,2.55h14.95v43.956l-21.827-21.929a2.587,2.587,0,0,0-3.646,0l-26.2,26.4a2.551,2.551,0,0,0-.727,1.824v50.15H776.2a2.734,2.734,0,0,0-1.823.727L757.6,324.25H706.2a2.734,2.734,0,0,0-1.823.727l-15.693,15.794-.668-.8-14.992-14.992a2.55,2.55,0,0,0-1.823-.727H663L648.048,309.2l15.675-15.776a2.735,2.735,0,0,0,.727-1.824,2.55,2.55,0,0,0-.727-1.823L646.95,272.9V238.8a2.735,2.735,0,0,0-.727-1.823l-17.4-17.5a2.587,2.587,0,0,0-3.646,0l-17.5,17.6a2.734,2.734,0,0,0-.727,1.824V274a2.734,2.734,0,0,0,.727,1.823L624.45,292.6V341.65H566.3a2.734,2.734,0,0,0-1.823.727l-17.5,17.6a1.3,1.3,0,0,0-.119.162,1.8,1.8,0,0,1-.158.213,2.718,2.718,0,0,0-.45,1.448v16.5l-.073.073-20.8,20.9L478.9,446.055l-.177-.179-15.5-15.6a2.552,2.552,0,0,0-1.808-.771,2.432,2.432,0,0,0-1.012.222l-.018.007a2.483,2.483,0,0,0-1.535,2.365v23.75H417.7a2.547,2.547,0,0,0-2.365,1.635l-.005.013a2.076,2.076,0,0,0-.006,1.79l.012.025.007.027a2.34,2.34,0,0,0,.634.984L457.852,502.5l-.175.176-15.5,15.6a2.55,2.55,0,0,0-.727,1.824,3.127,3.127,0,0,0,.141.839c.016.061.032.124.049.189a1.518,1.518,0,0,0,.5.764l.021.014.018.018L458.95,538.7V587.75H338.9a2.734,2.734,0,0,0-1.823.727l-17.5,17.6a2.55,2.55,0,0,0-.727,1.824v51.6l-16.665,17.066a2.938,2.938,0,0,0-.735,1.832,2.734,2.734,0,0,0,.727,1.823L318.95,697v34.1a2.553,2.553,0,0,0,2.55,2.55h51.4l16.773,16.773a2.587,2.587,0,0,0,3.646,0L410.1,733.65H444a2.734,2.734,0,0,0,1.823-.727l17.5-17.6a2.55,2.55,0,0,0,.727-1.824V697l.073-.073,16.7-16.7a2.734,2.734,0,0,0,.727-1.823V661.9l.073-.073,51.6-51.9a2.55,2.55,0,0,0,.727-1.824V591.6l14.95-14.951,15.677,15.778a2.559,2.559,0,0,0,1.823.751h0a2.559,2.559,0,0,0,1.822-.752l19.7-19.8,10.927-11.031V572.9a2.553,2.553,0,0,0,2.55,2.55h16.4l.073.074L703.75,661.8v16.5a2.553,2.553,0,0,0,2.55,2.55h13.3l-.18.362-15.5,31.094a2.829,2.829,0,0,0,.089,2.569,2.552,2.552,0,0,0,2.184,1.176h17.5a1.054,1.054,0,0,0,.488-.074l.03-.015.033-.006a2.617,2.617,0,0,0,1.272-.732l17.5-17.6a2.734,2.734,0,0,0,.727-1.824V663.25H758.7a1.056,1.056,0,0,0,.488-.073l.027-.013.029-.007a2.567,2.567,0,0,0,2.006-2.556V643a2.55,2.55,0,0,0-.727-1.823L674.847,555.1,689.8,540.15H705.1l16.773,16.874a2.55,2.55,0,0,0,1.823.726h16.4l.073.074L824.952,643.1l-.175.176-15.5,15.6a2.65,2.65,0,0,0,0,3.647l52.5,52.7a2.55,2.55,0,0,0,1.823.726h17.5a2.553,2.553,0,0,0,2.55-2.55V679.3l.073-.073L899.6,663.25h33.9a2.611,2.611,0,0,0,2.367-1.542,2.668,2.668,0,0,0-.544-2.831L918.55,642V609l16.773-16.773a2.734,2.734,0,0,0,.727-1.823V556.3l.073-.073L977.2,514.946,999.853,537.7l-.175.176-15.5,15.6a2.734,2.734,0,0,0-.727,1.824,2.55,2.55,0,0,0,.727,1.823l26.2,26.4a2.587,2.587,0,0,0,3.646,0l26.2-26.4a2.65,2.65,0,0,0,0-3.647L1024.548,537.7l.175-.176,39.877-40.179.177.179,22.375,22.576-33.175,33.376a2.5,2.5,0,0,0-.184,3.365l.007.008,75.6,100.7h-90l-.073-.074-12.3-12.4a2.549,2.549,0,0,0-1.822-.726H986a2.55,2.55,0,0,0-1.823.727l-54.7,54.9a2.581,2.581,0,0,0,0,3.647l45.9,46.2a2.549,2.549,0,0,0,1.823.726h60.1L1048.95,762.2v82.4a2.553,2.553,0,0,0,2.55,2.55h442a2.553,2.553,0,0,0,2.55-2.55V-169.117a2.341,2.341,0,0,0-2.168-2.534l-.036-.005Zm7.743,706.8,57.579,57.881-.413.114-74.987,20.586,75.079,75.478-.009.115-8.73,107.664-.329-.16-106.805-51.848.232-.248,42.254-45.045-64.8-83.906.156-.156Zm56.62,57.626L1317.6,495.454l-80.267,79.968,64.8,83.894-.146.155-42.168,44.952,105.866,51.392,8.661-106.821-75.521-75.922.413-.114Z"/>
        </g>
        <g id="Grupo_144" data-name="Grupo 144" clip-path="url(#clip-path)">
          <path id="Trazado_168" data-name="Trazado 168" d="M660,795.6l17.7-17.8a2.973,2.973,0,0,0,.8-2v-22a2.792,2.792,0,0,0-.8-2l-21.9-22a2.792,2.792,0,0,0-2-.8H592.6a2.973,2.973,0,0,0-2,.8l-25.4,25.6H496.4a2.973,2.973,0,0,0-2,.8L477.7,773H410.1l-16.7-16.8a2.837,2.837,0,0,0-4,0l-87.5,88a2.922,2.922,0,0,0-.6,3.1,2.8,2.8,0,0,0,2.6,1.8H688.8a2.8,2.8,0,0,0,2.8-2.8V828.7a2.792,2.792,0,0,0-.8-2L660,795.6Z" fill="#fff"/>
        </g>
        <g id="Grupo_145" data-name="Grupo 145" clip-path="url(#clip-path)">
          <path id="Trazado_169" data-name="Trazado 169" d="M688.8,849.35H303.9a3.055,3.055,0,0,1-2.835-1.965,3.163,3.163,0,0,1,.658-3.362l87.5-88a3.087,3.087,0,0,1,4.354,0L410.2,772.75H477.6l16.627-16.726a3.22,3.22,0,0,1,2.177-.874h68.7l25.327-25.526a3.22,3.22,0,0,1,2.177-.874h61.2a3.046,3.046,0,0,1,2.177.873l21.9,22a3.046,3.046,0,0,1,.873,2.176v22a3.22,3.22,0,0,1-.873,2.177L660.352,795.6l30.625,30.924a3.045,3.045,0,0,1,.872,2.176v17.6A3.053,3.053,0,0,1,688.8,849.35ZM391.4,755.625a2.56,2.56,0,0,0-1.823.752l-87.5,88a2.669,2.669,0,0,0-.542,2.838,2.547,2.547,0,0,0,2.365,1.635H688.8a2.553,2.553,0,0,0,2.55-2.55V828.7a2.55,2.55,0,0,0-.727-1.823L659.648,795.6l.175-.176,17.7-17.8a2.734,2.734,0,0,0,.727-1.824v-22a2.55,2.55,0,0,0-.727-1.823l-21.9-22a2.55,2.55,0,0,0-1.823-.726H592.6a2.734,2.734,0,0,0-1.823.727L565.3,755.65H496.4a2.734,2.734,0,0,0-1.823.727L477.8,773.25H410l-.073-.074-16.7-16.8A2.559,2.559,0,0,0,391.4,755.625Z"/>
        </g>
      </g>
      <path id="Trazado_170" data-name="Trazado 170" d="M609.5,655.3v15.9a1.99,1.99,0,0,0,.7,1.6l10.7,10.8a2.36,2.36,0,0,0,1.6.7h10.7a2.263,2.263,0,0,0,2.3-2.3V644.5a2.144,2.144,0,0,0-1.1-1.9,2.172,2.172,0,0,0-2.2-.1l-21.4,10.8a2.087,2.087,0,0,0-1.3,2Z" fill="#fff"/>
      <path id="Trazado_171" data-name="Trazado 171" d="M633.162,642h0a2.772,2.772,0,0,1,1.362.388,2.38,2.38,0,0,1,1.226,2.117V682a2.523,2.523,0,0,1-2.55,2.55H622.5a2.588,2.588,0,0,1-1.777-.773l-10.691-10.791a2.236,2.236,0,0,1-.782-1.786V655.3a2.329,2.329,0,0,1,1.449-2.229l21.383-10.791A2.162,2.162,0,0,1,633.162,642Zm.038,42.055a2,2,0,0,0,2.05-2.05V644.5a1.892,1.892,0,0,0-.974-1.683,2.274,2.274,0,0,0-1.114-.322,1.668,1.668,0,0,0-.838.222l-.011.006-21.425,10.811a1.833,1.833,0,0,0-1.138,1.766v15.9a1.744,1.744,0,0,0,.606,1.4l.021.019,10.7,10.8a2.108,2.108,0,0,0,1.422.626Z"/>
      <path id="Trazado_172" data-name="Trazado 172" d="M624.6,607.1a2.148,2.148,0,0,0-2.5.5l-14.2,14.2a2.36,2.36,0,0,0-.7,1.6v8.7a2.263,2.263,0,0,0,2.3,2.3h14.2a2.263,2.263,0,0,0,2.3-2.3V609.2a2.313,2.313,0,0,0-1.4-2.1Z" fill="#fff"/>
      <path id="Trazado_173" data-name="Trazado 173" d="M623.682,606.646h0a2.5,2.5,0,0,1,1.013.222,2.58,2.58,0,0,1,1.555,2.331v22.9a2.523,2.523,0,0,1-2.55,2.55H609.5a2.523,2.523,0,0,1-2.55-2.55v-8.7a2.588,2.588,0,0,1,.773-1.777l14.2-14.2A2.469,2.469,0,0,1,623.682,606.646Zm.018,27.5a2,2,0,0,0,2.05-2.05V609.2a2.057,2.057,0,0,0-1.238-1.866l-.014-.006a2.007,2.007,0,0,0-.817-.182,1.98,1.98,0,0,0-1.4.631l-14.2,14.2a2.108,2.108,0,0,0-.627,1.423v8.7a2,2,0,0,0,2.05,2.05Z"/>
      <path id="Trazado_174" data-name="Trazado 174" d="M715.9,721.2a2.58,2.58,0,0,0-2.1-.3l-8,3-25.5-8.6a2.3,2.3,0,0,0-2,.3,2.138,2.138,0,0,0-.9,1.8v8.8a1.99,1.99,0,0,0,.7,1.6l8.8,8.8a2.36,2.36,0,0,0,1.6.7h7.8l8.1,8.2a2.36,2.36,0,0,0,1.6.7h8.8a2.326,2.326,0,0,0,2.3-2.3V723a3.217,3.217,0,0,0-1.2-1.8Z" fill="#fff"/>
      <path id="Trazado_175" data-name="Trazado 175" d="M679.582,714.95a2.864,2.864,0,0,1,.787.11l.011,0,25.416,8.572,7.936-2.975a2.877,2.877,0,0,1,.791-.11h0a2.757,2.757,0,0,1,1.516.442,3.494,3.494,0,0,1,1.3,1.939l.01.034V743.9a2.584,2.584,0,0,1-2.55,2.55H706a2.588,2.588,0,0,1-1.777-.773L696.2,737.55h-7.7a2.588,2.588,0,0,1-1.777-.773l-8.791-8.791a2.236,2.236,0,0,1-.783-1.786v-8.8a2.384,2.384,0,0,1,1-2A2.305,2.305,0,0,1,679.582,714.95Zm.644.589a2.365,2.365,0,0,0-.644-.089,1.828,1.828,0,0,0-1.125.345l-.018.013a1.884,1.884,0,0,0-.789,1.592v8.8a1.744,1.744,0,0,0,.606,1.4l.021.018,8.8,8.8a2.108,2.108,0,0,0,1.423.627h7.9l.073.074,8.1,8.2a2.107,2.107,0,0,0,1.422.626h8.8a2.077,2.077,0,0,0,2.05-2.05V723.036a2.949,2.949,0,0,0-1.089-1.628,2.252,2.252,0,0,0-1.239-.358h0a2.378,2.378,0,0,0-.644.088l-8.074,3.028Z"/>
      <path id="Trazado_176" data-name="Trazado 176" d="M347.3,337.1l-28,28.1a2.3,2.3,0,0,0-.5,2.6,2.388,2.388,0,0,0,2.2,1.5h14.3l29.1,14.8a2.016,2.016,0,0,0,1.1.3,2.342,2.342,0,0,0,1.7-.7L397,353.8a2.837,2.837,0,0,0,.7-1.7V323.3l14.1-14.2a2.414,2.414,0,0,0,0-3.4L397,290.8a2.193,2.193,0,0,0-1.7-.7H365.6a2.837,2.837,0,0,0-1.7.7l-29.7,29.8a2.478,2.478,0,0,0,0,3.4l13.1,13.1Z" fill="#fff"/>
      <path id="Trazado_177" data-name="Trazado 177" d="M365.6,289.85h29.7a2.421,2.421,0,0,1,1.887.783L412,305.544a2.66,2.66,0,0,1,0,3.712l-.018.02L397.95,323.4v28.7a3.106,3.106,0,0,1-.755,1.856l-.018.02-29.8,29.9a2.6,2.6,0,0,1-1.877.774,2.261,2.261,0,0,1-1.226-.333L335.24,369.55H321a2.63,2.63,0,0,1-2.428-1.648,2.539,2.539,0,0,1,.552-2.878L346.947,337.1l-12.924-12.924a2.724,2.724,0,0,1,0-3.754L363.744,290.6A3.106,3.106,0,0,1,365.6,289.85Zm46.013,16.017L396.8,290.956a1.972,1.972,0,0,0-1.5-.606H365.6a2.61,2.61,0,0,0-1.533.637l-29.69,29.79a2.239,2.239,0,0,0,0,3.047L347.653,337.1l-28.176,28.277a2.049,2.049,0,0,0-.449,2.322A2.143,2.143,0,0,0,321,369.05h14.36l29.179,14.842a1.775,1.775,0,0,0,.961.258,2.082,2.082,0,0,0,1.523-.627l29.79-29.89a2.611,2.611,0,0,0,.637-1.533V323.2l.073-.073,14.09-14.19a2.164,2.164,0,0,0,0-3.067Z"/>
      <path id="Trazado_178" data-name="Trazado 178" d="M401.3,230v31.6a2.732,2.732,0,0,0,.8,1.9L449,310.7l-14.4,14.5a2.656,2.656,0,0,0,0,3.8l22.5,22.7-38.8,39a2.825,2.825,0,0,0-.6,2.9,2.6,2.6,0,0,0,2.4,1.6h80.3a2.647,2.647,0,0,0,2.6-2.6V360l14.5-14.6a2.732,2.732,0,0,0,.8-1.9V312.9a2.732,2.732,0,0,0-.8-1.9l-46.8-47a2.732,2.732,0,0,0-1.9-.8H430.4l40.3-40.5a2.825,2.825,0,0,0,.6-2.9,2.6,2.6,0,0,0-2.4-1.6H434.6l19.9-20a2.825,2.825,0,0,0,.6-2.9,2.6,2.6,0,0,0-2.4-1.6H420.2a2.663,2.663,0,0,0-1.2.3l-32.5,16.3a2.467,2.467,0,0,0-1.4,1.9,2.783,2.783,0,0,0,.7,2.3L401.3,230Z" fill="#fff"/>
      <path id="Trazado_179" data-name="Trazado 179" d="M420.2,193.45h32.5a2.846,2.846,0,0,1,2.632,1.757,3.078,3.078,0,0,1-.644,3.157l-.011.012L435.2,217.95h33.7a2.846,2.846,0,0,1,2.632,1.757,3.078,3.078,0,0,1-.644,3.157l-.011.012L431,262.95h37.8a2.964,2.964,0,0,1,2.077.873l46.8,47a2.964,2.964,0,0,1,.873,2.076v30.6a2.965,2.965,0,0,1-.873,2.077L503.25,360.1v32.5a2.888,2.888,0,0,1-2.85,2.85H420.1a2.846,2.846,0,0,1-2.632-1.757,3.078,3.078,0,0,1,.644-3.157l.011-.012L456.748,351.7l-22.325-22.524a2.906,2.906,0,0,1,0-4.153L448.648,310.7l-46.725-47.024a2.964,2.964,0,0,1-.873-2.076V230.1l-15.427-15.427a3.017,3.017,0,0,1-.771-2.508,2.712,2.712,0,0,1,1.536-2.093l32.5-16.3A2.923,2.923,0,0,1,420.2,193.45Zm34.117,4.58a2.58,2.58,0,0,0,.551-2.637,2.342,2.342,0,0,0-2.168-1.443H420.2a2.428,2.428,0,0,0-1.088.274l-32.5,16.3a2.22,2.22,0,0,0-1.264,1.708,2.516,2.516,0,0,0,.629,2.092L401.55,229.9v31.7a2.5,2.5,0,0,0,.727,1.723L449.352,310.7l-14.575,14.676a2.406,2.406,0,0,0,0,3.447L457.452,351.7l-38.969,39.17a2.58,2.58,0,0,0-.551,2.637,2.342,2.342,0,0,0,2.168,1.443h80.3a2.412,2.412,0,0,0,2.35-2.35V359.9l14.573-14.673a2.5,2.5,0,0,0,.727-1.724V312.9a2.5,2.5,0,0,0-.727-1.723l-46.8-47a2.5,2.5,0,0,0-1.723-.726h-39l40.719-40.921a2.58,2.58,0,0,0,.551-2.636,2.342,2.342,0,0,0-2.168-1.443H434Z"/>
      <g id="Grupo_151" data-name="Grupo 151">
        <g id="Grupo_147" data-name="Grupo 147" clip-path="url(#clip-path-5)">
          <path id="Trazado_180" data-name="Trazado 180" d="M304.6,12.5a3.176,3.176,0,0,0-.8-2l-56-56.3a2.794,2.794,0,0,0-3-.6,2.761,2.761,0,0,0-1.7,2.6v23.2h-23a3.176,3.176,0,0,0-2,.8L202.8-4.4,187.5-19.7a2.717,2.717,0,0,0-3.9,0L168.4-4.4l-23.9-24a2.717,2.717,0,0,0-3.9,0l-25.8,26a2.792,2.792,0,0,0-.8,2,3.176,3.176,0,0,0,.8,2l23.9,24-6.6,6.7a2.792,2.792,0,0,0-.8,2V51.6a2.8,2.8,0,0,0,2.8,2.8H150l42.2,42.5a2.973,2.973,0,0,0,2,.8,3.176,3.176,0,0,0,2-.8l33.6-33.8h24.7a3.176,3.176,0,0,0,2-.8l47.3-47.6a3.716,3.716,0,0,0,.8-2.2Z" transform="translate(0 98)" fill="#fff"/>
        </g>
        <g id="Grupo_148" data-name="Grupo 148" clip-path="url(#clip-path)">
          <path id="Trazado_181" data-name="Trazado 181" d="M245.844-46.85h0a2.991,2.991,0,0,1,2.132.873L303.992,10.34a3.44,3.44,0,0,1,.858,2.16A3.942,3.942,0,0,1,304,14.845l-.012.017-.014.014L256.66,62.492a3.44,3.44,0,0,1-2.16.858H229.9L196.36,97.092a3.44,3.44,0,0,1-2.16.858,3.22,3.22,0,0,1-2.177-.873L149.9,54.65H134.1a3.053,3.053,0,0,1-3.05-3.05V34.3a3.046,3.046,0,0,1,.873-2.177l6.425-6.522L114.608,1.76A3.44,3.44,0,0,1,113.75-.4a3.046,3.046,0,0,1,.873-2.177l25.8-26a3,3,0,0,1,2.127-.9,3,3,0,0,1,2.127.9L168.4-4.755l15.023-15.122a3,3,0,0,1,2.127-.9,3,3,0,0,1,2.127.9L202.8-4.754,217.94-19.992a3.44,3.44,0,0,1,2.16-.858h22.75V-43.8a3.007,3.007,0,0,1,1.857-2.832A3.048,3.048,0,0,1,245.844-46.85Zm57.771,57.518L247.623-45.624a2.494,2.494,0,0,0-1.778-.726h0a2.55,2.55,0,0,0-.951.182A2.51,2.51,0,0,0,243.35-43.8v23.45H220.1a2.938,2.938,0,0,0-1.831.735L202.8-4.046,187.323-19.523a2.5,2.5,0,0,0-1.773-.752,2.5,2.5,0,0,0-1.773.752L168.4-4.046,144.323-28.224a2.5,2.5,0,0,0-1.773-.751,2.5,2.5,0,0,0-1.773.752l-25.8,26A2.55,2.55,0,0,0,114.25-.4a2.938,2.938,0,0,0,.735,1.832L139.052,25.6l-6.774,6.876a2.551,2.551,0,0,0-.728,1.825V51.6a2.553,2.553,0,0,0,2.55,2.55h16l42.273,42.574a2.734,2.734,0,0,0,1.823.726,2.938,2.938,0,0,0,1.831-.735L229.7,62.85h24.8a2.938,2.938,0,0,0,1.831-.735l47.277-47.577a3.457,3.457,0,0,0,.742-2.038A2.938,2.938,0,0,0,303.615,10.668Z" transform="translate(0 98)"/>
        </g>
        <g id="Grupo_149" data-name="Grupo 149" clip-path="url(#clip-path)">
          <path id="Trazado_182" data-name="Trazado 182" d="M802.3,871.4l-33,33.2a2.922,2.922,0,0,0-.6,3.1,2.8,2.8,0,0,0,2.6,1.8h16.8l34.3,17.4a2.768,2.768,0,0,0,1.3.3,2.973,2.973,0,0,0,2-.8l35.1-35.3a2.973,2.973,0,0,0,.8-2v-34l38.9-2a2.9,2.9,0,0,0,0-4l-39.8-32.3a2.792,2.792,0,0,0-2-.8h-35a2.973,2.973,0,0,0-2,.8l-35,35.2a2.837,2.837,0,0,0,0,4l15.6,15.4Z" fill="#fff"/>
        </g>
        <g id="Grupo_150" data-name="Grupo 150" clip-path="url(#clip-path)">
          <path id="Trazado_183" data-name="Trazado 183" d="M823.7,815.75h35a3.047,3.047,0,0,1,2.167.864l39.809,32.309a3.15,3.15,0,0,1,0,4.354l-.068.068-.1,0-38.663,1.988V889.1a3.22,3.22,0,0,1-.873,2.177l-35.1,35.3a3.22,3.22,0,0,1-2.177.874,3,3,0,0,1-1.412-.326L788.04,909.75H771.3a3.055,3.055,0,0,1-2.835-1.965,3.163,3.163,0,0,1,.658-3.362L801.946,871.4l-15.422-15.224a3.082,3.082,0,0,1,0-4.355l35-35.2A3.22,3.22,0,0,1,823.7,815.75Zm76.632,33.536-39.809-32.309a2.55,2.55,0,0,0-1.823-.727h-35a2.734,2.734,0,0,0-1.823.727l-35,35.2a2.581,2.581,0,0,0,0,3.647L802.654,871.4l-.177.178-33,33.2a2.669,2.669,0,0,0-.542,2.838,2.547,2.547,0,0,0,2.365,1.635h16.86l.053.027,34.3,17.4a2.527,2.527,0,0,0,1.187.273,2.734,2.734,0,0,0,1.823-.727l35.1-35.3a2.734,2.734,0,0,0,.727-1.824V854.863l39.038-2.007a2.654,2.654,0,0,0-.056-3.57Z"/>
        </g>
      </g>
      <path id="Trazado_184" data-name="Trazado 184" d="M862.9,760.6h18.9l2.9,2.9H900l7.3,7.4H887.1l-1.9-2H871.1Z" fill="#fff"/>
      <path id="Trazado_185" data-name="Trazado 185" d="M862.3,760.35h19.6l2.9,2.9h15.3l7.793,7.9H886.993l-1.9-2H871l-.073-.074Zm19.395.5H863.5l7.706,7.8h14.1l1.9,2H906.7l-6.807-6.9H884.6Z"/>
      <path id="Trazado_186" data-name="Trazado 186" d="M1025.5,148.8h-4.8V132h4.8Z" fill="#fff"/>
      <path id="Trazado_190" data-name="Trazado 190" d="M1048.5,148.8h-4.9V132h4.9Z" fill="#fff"/>
      <path id="Trazado_194" data-name="Trazado 194" d="M663.5,514.2h-4.9V497.4h4.9Z" fill="#fff"/>
      <path id="Trazado_195" data-name="Trazado 195" d="M663.5,514.45h-4.9a.25.25,0,0,1-.25-.25V497.4a.25.25,0,0,1,.25-.25h4.9a.25.25,0,0,1,.25.25v16.8A.25.25,0,0,1,663.5,514.45Zm-4.65-.5h4.4v-16.3h-4.4Z"/>
      <path id="Trazado_196" data-name="Trazado 196" d="M670.7,483.9v-2.2c0-2.9-1.8-5.3-4-5.3H655.4c-2.2,0-4,2.4-4,5.3v2.2c0,2.9,1.8,5.3,4,5.3-2.2,0-4,2.4-4,5.3v2.2c0,2.9,1.8,5.3,4,5.3h11.3c2.2,0,4-2.4,4-5.3v-2.2c0-2.9-1.8-5.3-4-5.3,2.2,0,4-2.4,4-5.3Z" fill="#26ff94"/>
      <path id="Trazado_197" data-name="Trazado 197" d="M655.4,476.15h11.3c2.343,0,4.25,2.49,4.25,5.55v2.2a6.479,6.479,0,0,1-1.225,3.888,4.238,4.238,0,0,1-1.762,1.412c1.729.7,2.987,2.814,2.987,5.3v2.2c0,3.06-1.907,5.55-4.25,5.55H655.4c-2.343,0-4.25-2.49-4.25-5.55v-2.2c0-2.486,1.258-4.6,2.987-5.3-1.729-.7-2.987-2.814-2.987-5.3v-2.2C651.15,478.64,653.057,476.15,655.4,476.15Zm11.3,12.8a3.319,3.319,0,0,0,2.625-1.463,5.977,5.977,0,0,0,1.125-3.587v-2.2a5.976,5.976,0,0,0-1.125-3.587,3.319,3.319,0,0,0-2.625-1.463H655.4a3.319,3.319,0,0,0-2.625,1.463,5.976,5.976,0,0,0-1.125,3.587v2.2a5.976,5.976,0,0,0,1.125,3.587,3.319,3.319,0,0,0,2.625,1.463.25.25,0,0,1,0,.5,3.319,3.319,0,0,0-2.625,1.463,5.976,5.976,0,0,0-1.125,3.587v2.2a5.976,5.976,0,0,0,1.125,3.587,3.319,3.319,0,0,0,2.625,1.463h11.3a3.319,3.319,0,0,0,2.625-1.463,5.976,5.976,0,0,0,1.125-3.587v-2.2a5.976,5.976,0,0,0-1.125-3.587,3.319,3.319,0,0,0-2.625-1.463.25.25,0,0,1,0-.5Z"/>
      <path id="Trazado_198" data-name="Trazado 198" d="M688.5,495.3h-4.8V478.5h4.8Z" fill="#fff"/>
      <path id="Trazado_199" data-name="Trazado 199" d="M688.5,495.55h-4.8a.25.25,0,0,1-.25-.25V478.5a.25.25,0,0,1,.25-.25h4.8a.25.25,0,0,1,.25.25v16.8A.25.25,0,0,1,688.5,495.55Zm-4.55-.5h4.3v-16.3h-4.3Z"/>
      <path id="Trazado_200" data-name="Trazado 200" d="M695.8,465.1v-2.2c0-2.9-1.8-5.3-4-5.3H680.5c-2.2,0-4,2.4-4,5.3v2.2c0,2.9,1.8,5.3,4,5.3-2.2,0-4,2.4-4,5.3v2.2c0,2.9,1.8,5.3,4,5.3h11.3c2.2,0,4-2.4,4-5.3v-2.2c0-2.9-1.8-5.3-4-5.3,2.2-.1,4-2.4,4-5.3Z" fill="#26ff94"/>
      <path id="Trazado_201" data-name="Trazado 201" d="M680.5,457.35h11.3c2.343,0,4.25,2.49,4.25,5.55v2.2a5.564,5.564,0,0,1-3.031,5.283c1.751.686,3.031,2.81,3.031,5.317v2.2c0,3.06-1.907,5.55-4.25,5.55H680.5c-2.343,0-4.25-2.49-4.25-5.55v-2.2c0-2.486,1.258-4.6,2.987-5.3-1.729-.7-2.987-2.814-2.987-5.3v-2.2C676.25,459.84,678.157,457.35,680.5,457.35Zm11.3,25.6a3.319,3.319,0,0,0,2.625-1.463,5.976,5.976,0,0,0,1.125-3.587v-2.2a5.976,5.976,0,0,0-1.125-3.587,3.319,3.319,0,0,0-2.625-1.463.25.25,0,0,1-.011-.5,3.549,3.549,0,0,0,2.638-1.5,5.86,5.86,0,0,0,1.124-3.548v-2.2a5.976,5.976,0,0,0-1.125-3.587,3.319,3.319,0,0,0-2.625-1.463H680.5a3.319,3.319,0,0,0-2.625,1.463,5.976,5.976,0,0,0-1.125,3.587v2.2a5.976,5.976,0,0,0,1.125,3.587,3.319,3.319,0,0,0,2.625,1.463.25.25,0,0,1,0,.5,3.319,3.319,0,0,0-2.625,1.463,5.976,5.976,0,0,0-1.125,3.587v2.2a5.976,5.976,0,0,0,1.125,3.587,3.319,3.319,0,0,0,2.625,1.463Z"/>
      <path id="Trazado_202" data-name="Trazado 202" d="M857.7,412.6h-4.8V395.8h4.8Z" fill="#fff"/>
      <path id="Trazado_203" data-name="Trazado 203" d="M857.7,412.85h-4.8a.25.25,0,0,1-.25-.25V395.8a.25.25,0,0,1,.25-.25h4.8a.25.25,0,0,1,.25.25v16.8A.25.25,0,0,1,857.7,412.85Zm-4.55-.5h4.3v-16.3h-4.3Z"/>
      <path id="Trazado_204" data-name="Trazado 204" d="M865,382.3v-2.2c0-2.9-1.8-5.3-4-5.3H849.7c-2.2,0-4,2.4-4,5.3v2.2c0,2.9,1.8,5.3,4,5.3-2.2,0-4,2.4-4,5.3v2.2c0,2.9,1.8,5.3,4,5.3H861c2.2,0,4-2.4,4-5.3v-2.2c0-2.9-1.8-5.3-4-5.3,2.2,0,4-2.4,4-5.3Z" fill="#26ff94"/>
      <path id="Trazado_205" data-name="Trazado 205" d="M849.7,374.55H861c2.343,0,4.25,2.49,4.25,5.55v2.2a6.479,6.479,0,0,1-1.225,3.888,4.238,4.238,0,0,1-1.762,1.412c1.729.7,2.987,2.814,2.987,5.3v2.2c0,3.06-1.907,5.55-4.25,5.55H849.7c-2.343,0-4.25-2.49-4.25-5.55v-2.2c0-2.486,1.258-4.6,2.987-5.3-1.729-.7-2.987-2.814-2.987-5.3v-2.2C845.45,377.04,847.357,374.55,849.7,374.55Zm11.3,12.8a3.319,3.319,0,0,0,2.625-1.463,5.977,5.977,0,0,0,1.125-3.587v-2.2a5.976,5.976,0,0,0-1.125-3.587A3.319,3.319,0,0,0,861,375.05H849.7a3.319,3.319,0,0,0-2.625,1.463,5.976,5.976,0,0,0-1.125,3.587v2.2a5.976,5.976,0,0,0,1.125,3.587,3.319,3.319,0,0,0,2.625,1.463.25.25,0,0,1,0,.5,3.319,3.319,0,0,0-2.625,1.463,5.976,5.976,0,0,0-1.125,3.587v2.2a5.976,5.976,0,0,0,1.125,3.587,3.319,3.319,0,0,0,2.625,1.463H861a3.319,3.319,0,0,0,2.625-1.463,5.976,5.976,0,0,0,1.125-3.587v-2.2a5.976,5.976,0,0,0-1.125-3.587A3.319,3.319,0,0,0,861,387.85a.25.25,0,0,1,0-.5Z"/>
      <path id="Trazado_206" data-name="Trazado 206" d="M882.4,418.4h-4.9V401.7h4.9Z" fill="#fff"/>
      <path id="Trazado_207" data-name="Trazado 207" d="M882.4,418.65h-4.9a.25.25,0,0,1-.25-.25V401.7a.25.25,0,0,1,.25-.25h4.9a.25.25,0,0,1,.25.25v16.7A.25.25,0,0,1,882.4,418.65Zm-4.65-.5h4.4v-16.2h-4.4Z"/>
      <path id="Trazado_208" data-name="Trazado 208" d="M872.4,374.8h15.4v35.3H872.4Z" fill="#26ff94"/>
      <path id="Trazado_209" data-name="Trazado 209" d="M872.4,374.55h15.4a.25.25,0,0,1,.25.25v35.3a.25.25,0,0,1-.25.25H872.4a.25.25,0,0,1-.25-.25V374.8A.25.25,0,0,1,872.4,374.55Zm15.15.5h-14.9v34.8h14.9Z"/>
      <path id="Trazado_210" data-name="Trazado 210" d="M1120.4,274.3h-4.8V257.5h4.8Z" fill="#fff"/>
      <path id="Trazado_211" data-name="Trazado 211" d="M1120.4,274.55h-4.8a.25.25,0,0,1-.25-.25V257.5a.25.25,0,0,1,.25-.25h4.8a.25.25,0,0,1,.25.25v16.8A.25.25,0,0,1,1120.4,274.55Zm-4.55-.5h4.3v-16.3h-4.3Z"/>
      <path id="Trazado_212" data-name="Trazado 212" d="M1118.2,232.7l10.2,33.2h-20.5Z" fill="#26ff94"/>
      <path id="Trazado_213" data-name="Trazado 213" d="M1118.2,232.45h0a.25.25,0,0,1,.239.177l10.2,33.2a.25.25,0,0,1-.239.323h-20.5a.25.25,0,0,1-.239-.324l10.3-33.2A.25.25,0,0,1,1118.2,232.45Zm9.862,33.2-9.863-32.1-9.959,32.1Z"/>
      <path id="Trazado_214" data-name="Trazado 214" d="M1099.5,300.4h-4.8V283.6h4.8Z" fill="#fff"/>
      <path id="Trazado_215" data-name="Trazado 215" d="M1099.5,300.65h-4.8a.25.25,0,0,1-.25-.25V283.6a.25.25,0,0,1,.25-.25h4.8a.25.25,0,0,1,.25.25v16.8A.25.25,0,0,1,1099.5,300.65Zm-4.55-.5h4.3v-16.3h-4.3Z"/>
      <path id="Trazado_216" data-name="Trazado 216" d="M1097.2,258.8l10.3,33.2H1087Z" fill="#26ff94"/>
      <path id="Trazado_217" data-name="Trazado 217" d="M1097.2,258.55a.25.25,0,0,1,.239.176l10.3,33.2a.25.25,0,0,1-.239.324H1087a.25.25,0,0,1-.239-.323l10.2-33.2a.25.25,0,0,1,.239-.177Zm9.961,33.2-9.959-32.1-9.863,32.1Z"/>
      <path id="Trazado_218" data-name="Trazado 218" d="M628.2,127h-4.9V110.2h4.9Z" fill="#fff"/>
      <path id="Trazado_219" data-name="Trazado 219" d="M628.2,127.25h-4.9a.25.25,0,0,1-.25-.25V110.2a.25.25,0,0,1,.25-.25h4.9a.25.25,0,0,1,.25.25V127A.25.25,0,0,1,628.2,127.25Zm-4.65-.5h4.4v-16.3h-4.4Z"/>
      <path id="Trazado_220" data-name="Trazado 220" d="M625.9,85.4l10.3,33.2H615.7Z" fill="#26ff94"/>
      <path id="Trazado_221" data-name="Trazado 221" d="M625.9,85.15a.25.25,0,0,1,.239.176l10.3,33.2a.25.25,0,0,1-.239.324H615.7a.25.25,0,0,1-.239-.323l10.2-33.2a.25.25,0,0,1,.239-.177Zm9.961,33.2-9.96-32.1-9.863,32.1Z"/>
      <path id="Trazado_222" data-name="Trazado 222" d="M820.4,534.6h-4.9V517.8h4.9Z" fill="#fff"/>
      <path id="Trazado_223" data-name="Trazado 223" d="M820.4,534.85h-4.9a.25.25,0,0,1-.25-.25V517.8a.25.25,0,0,1,.25-.25h4.9a.25.25,0,0,1,.25.25v16.8A.25.25,0,0,1,820.4,534.85Zm-4.65-.5h4.4v-16.3h-4.4Z"/>
      <path id="Trazado_224" data-name="Trazado 224" d="M818.1,493l10.3,33.2H807.9Z" fill="#26ff94"/>
      <path id="Trazado_225" data-name="Trazado 225" d="M818.1,492.75a.25.25,0,0,1,.239.176l10.3,33.2a.25.25,0,0,1-.239.324H807.9a.25.25,0,0,1-.239-.323l10.2-33.2a.25.25,0,0,1,.239-.177Zm9.961,33.2-9.96-32.1-9.863,32.1Z"/>
      <path id="Trazado_226" data-name="Trazado 226" d="M701.1,177h-4.9V160.2h4.9Z" fill="#fff"/>
      <path id="Trazado_227" data-name="Trazado 227" d="M701.1,177.25h-4.9a.25.25,0,0,1-.25-.25V160.2a.25.25,0,0,1,.25-.25h4.9a.25.25,0,0,1,.25.25V177A.25.25,0,0,1,701.1,177.25Zm-4.65-.5h4.4v-16.3h-4.4Z"/>
      <path id="Trazado_228" data-name="Trazado 228" d="M698.8,135.4,709,168.6H688.5Z" fill="#26ff94"/>
      <path id="Trazado_229" data-name="Trazado 229" d="M698.8,135.15h0a.25.25,0,0,1,.239.177l10.2,33.2a.25.25,0,0,1-.239.323H688.5a.25.25,0,0,1-.239-.324l10.3-33.2A.25.25,0,0,1,698.8,135.15Zm9.862,33.2-9.863-32.1-9.96,32.1Z"/>
      <path id="Trazado_230" data-name="Trazado 230" d="M1087.4,738.1h-4.8V721.3h4.8Z" fill="#fff"/>
      <path id="Trazado_231" data-name="Trazado 231" d="M1087.4,738.35h-4.8a.25.25,0,0,1-.25-.25V721.3a.25.25,0,0,1,.25-.25h4.8a.25.25,0,0,1,.25.25v16.8A.25.25,0,0,1,1087.4,738.35Zm-4.55-.5h4.3v-16.3h-4.3Z"/>
      <path id="Trazado_232" data-name="Trazado 232" d="M1094.7,707.9v-2.2c0-2.9-1.8-5.3-4-5.3h-11.3c-2.2,0-4,2.4-4,5.3v2.2c0,2.9,1.8,5.3,4,5.3-2.2,0-4,2.4-4,5.3v2.2c0,2.9,1.8,5.3,4,5.3h11.3c2.2,0,4-2.4,4-5.3v-2.2c0-2.9-1.8-5.3-4-5.3,2.2-.1,4-2.4,4-5.3Z" fill="#26ff94"/>
      <path id="Trazado_233" data-name="Trazado 233" d="M789.3,767.55a7.291,7.291,0,0,1-6.951-5.183,7.263,7.263,0,0,1-1.809,3.034,7.25,7.25,0,0,1-12.39-5.1.25.25,0,0,1,.5,0,6.75,6.75,0,0,0,13.448.84,7.33,7.33,0,0,1-.048-.84.3.3,0,0,1,.6,0,7.279,7.279,0,0,1-.048.838,6.75,6.75,0,0,0,13.448-.838.25.25,0,0,1,.5,0,7.27,7.27,0,0,1-7.25,7.25Zm301.4-41.3h-11.3c-2.344,0-4.25-2.49-4.25-5.55v-2.2c0-2.486,1.258-4.6,2.987-5.3-1.729-.7-2.987-2.814-2.987-5.3v-2.2c0-3.06,1.906-5.55,4.25-5.55h11.3c2.344,0,4.25,2.49,4.25,5.55v2.2a5.564,5.564,0,0,1-3.031,5.283c1.751.686,3.031,2.81,3.031,5.317v2.2C1094.95,723.76,1093.043,726.25,1090.7,726.25Zm-11.3-12.8a3.319,3.319,0,0,0-2.625,1.463,5.976,5.976,0,0,0-1.125,3.587v2.2a5.976,5.976,0,0,0,1.125,3.587,3.319,3.319,0,0,0,2.625,1.463h11.3a3.319,3.319,0,0,0,2.625-1.463,5.977,5.977,0,0,0,1.125-3.587v-2.2a5.976,5.976,0,0,0-1.125-3.587,3.319,3.319,0,0,0-2.625-1.463.25.25,0,0,1-.011-.5,3.549,3.549,0,0,0,2.638-1.5,5.86,5.86,0,0,0,1.124-3.548v-2.2a5.976,5.976,0,0,0-1.125-3.587,3.319,3.319,0,0,0-2.625-1.463h-11.3a3.319,3.319,0,0,0-2.625,1.463,5.976,5.976,0,0,0-1.125,3.587v2.2a5.976,5.976,0,0,0,1.125,3.587,3.319,3.319,0,0,0,2.625,1.463.25.25,0,0,1,0,.5Zm-10.3-87.7a7.2,7.2,0,0,1-6.955-5.17,7.261,7.261,0,0,1-1.805,3.021,7.25,7.25,0,0,1-12.39-5.1.25.25,0,0,1,.5,0,6.75,6.75,0,0,0,13.447.845,7.512,7.512,0,0,1-.047-.845.3.3,0,0,1,.6,0,7.276,7.276,0,0,1-.049.845,6.7,6.7,0,0,0,6.7,5.9,6.758,6.758,0,0,0,6.75-6.75.25.25,0,0,1,.5,0,7.27,7.27,0,0,1-7.25,7.25ZM523.3,239.65a.25.25,0,0,1,0-.5,6.758,6.758,0,0,0,6.75-6.75.25.25,0,1,1,.5,0c0,1.732,3.361,2.638,6.682,2.638a14.7,14.7,0,0,0,4.77-.712c.935-.34,2.049-.95,2.049-1.926a.25.25,0,1,1,.5,0c0,2.156-3.793,3.138-7.318,3.138-2.857,0-5.735-.62-6.775-1.975a7.278,7.278,0,0,1-7.157,6.088Zm277.4-33.8a7.2,7.2,0,0,1-6.955-5.171,7.262,7.262,0,0,1-1.805,3.021,7.25,7.25,0,0,1-12.39-5.1.25.25,0,1,1,.5,0,6.75,6.75,0,0,0,13.447.845,7.52,7.52,0,0,1-.047-.845.3.3,0,0,1,.6,0,7.284,7.284,0,0,1-.049.845,6.7,6.7,0,0,0,6.7,5.905,6.758,6.758,0,0,0,6.75-6.75.25.25,0,1,1,.5,0,7.271,7.271,0,0,1-7.25,7.25ZM416.5,71.25a7.2,7.2,0,0,1-6.955-5.17A7.263,7.263,0,0,1,407.74,69.1,7.25,7.25,0,0,1,395.35,64a.25.25,0,0,1,.5,0,6.75,6.75,0,0,0,13.447.845A7.514,7.514,0,0,1,409.25,64a.3.3,0,0,1,.6,0,7.288,7.288,0,0,1-.049.845,6.7,6.7,0,0,0,6.7,5.9A6.758,6.758,0,0,0,423.25,64a.25.25,0,0,1,.5,0,7.271,7.271,0,0,1-7.25,7.25Z"/>
      <path id="Trazado_234" data-name="Trazado 234" d="M201,79.2V98.221h98.334V79.2Z" transform="translate(0.493 93.175)" fill="#fff"/>
      <text id="Bifröst_University" data-name="Bifröst University" transform="translate(207.827 185.5)" font-size="11" font-family="SegoeUI-Semibold, Segoe UI" font-weight="600"><tspan x="0" y="0">Bifröst University</tspan></text>
      <path id="Trazado_235" data-name="Trazado 235" d="M299.827,99.146H200.25V79.2h1.5V97.646h98.077Z" transform="translate(0 93)"/>
      <path id="Trazado_236" data-name="Trazado 236" d="M240.5,628.9v30.7h72.1V628.9Z" fill="#fff"/>
      <text id="Universidade_Aberta" data-name="Universidade
Aberta" transform="translate(245.763 640.031)" font-size="11" font-family="SegoeUI-Semibold, Segoe UI" font-weight="600"><tspan x="0" y="0">Universidade</tspan><tspan x="0" y="13">Aberta</tspan></text>
      <path id="Trazado_237" data-name="Trazado 237" d="M312.6,660.175H240.025V628.9h1.55v29.725H312.6Z"/>
      <path id="Trazado_238" data-name="Trazado 238" d="M306.8,644.2c6.8,0,12.3,6,12.3,13.4,0,6.7-8.3,15.7-12.3,21.5-3.9-5.8-12.3-14.8-12.3-21.5,0-7.4,5.5-13.4,12.3-13.4Z" fill="#ff6b85"/>
      <path id="Trazado_239" data-name="Trazado 239" d="M306.8,643.926a12.005,12.005,0,0,1,8.9,4.014,14.215,14.215,0,0,1,3.672,9.66c0,5.307-5.1,12.011-9.2,17.4-1.165,1.531-2.266,2.978-3.149,4.258l-.228.331-.224-.334c-.923-1.372-2.107-2.936-3.362-4.592a94.882,94.882,0,0,1-6-8.562c-2.008-3.394-2.985-6.174-2.985-8.5a14.215,14.215,0,0,1,3.672-9.66A12.005,12.005,0,0,1,306.8,643.926Zm0,34.691c.848-1.207,1.864-2.543,2.935-3.951,4.049-5.321,9.088-11.943,9.088-17.066,0-7.238-5.395-13.126-12.026-13.126s-12.026,5.888-12.026,13.126c0,5.015,4.92,11.511,8.874,16.73C304.808,675.861,305.908,677.314,306.8,678.617Z"/>
      <path id="Trazado_240" data-name="Trazado 240" d="M306.8,661.3a5.1,5.1,0,1,0-5.1-5.1,5,5,0,0,0,5.1,5.1Z" fill="#fff"/>
      <path id="Trazado_241" data-name="Trazado 241" d="M306.8,661.574a5.4,5.4,0,1,1,3.794-1.58A5.364,5.364,0,0,1,306.8,661.574Zm0-10.2a4.832,4.832,0,0,0-4.826,4.826,4.72,4.72,0,0,0,4.826,4.826,4.826,4.826,0,1,0,0-9.652Z"/>
      <path id="Trazado_242" data-name="Trazado 242" d="M496.6,630.5v30.8H601.637V630.5Z" transform="translate(0 -2.3)" fill="#fff"/>
      <text id="Universitat_Oberta_de_Catalunya" data-name="Universitat Oberta 
de Catalunya" transform="translate(503.901 640.6)" font-size="11" font-family="SegoeUI-Semibold, Segoe UI" font-weight="600"><tspan x="0" y="0">Universitat Oberta </tspan><tspan x="0" y="13">de Catalunya</tspan></text>
      <path id="Trazado_243" data-name="Trazado 243" d="M601.637,663.05H496.35V631.7h1.5v29.85H601.637Z" transform="translate(0 -3.5)"/>
      <path id="Trazado_244" data-name="Trazado 244" d="M870.6,676.1c6.8,0,12.3,6,12.3,13.4,0,6.7-8.3,15.7-12.3,21.5-3.9-5.8-12.3-14.8-12.3-21.5.1-7.4,5.5-13.4,12.3-13.4Z" fill="#ff6b85"/>
      <path id="Trazado_245" data-name="Trazado 245" d="M870.6,675.826a12.005,12.005,0,0,1,8.9,4.014,14.215,14.215,0,0,1,3.672,9.66c0,5.307-5.1,12.011-9.2,17.4-1.165,1.531-2.266,2.978-3.149,4.258l-.228.331-.224-.334c-.923-1.372-2.107-2.936-3.362-4.592a94.886,94.886,0,0,1-6-8.562c-2.008-3.394-2.985-6.174-2.985-8.5a14.56,14.56,0,0,1,3.709-9.66A11.922,11.922,0,0,1,870.6,675.826Zm0,34.691c.847-1.207,1.864-2.543,2.935-3.951,4.049-5.321,9.088-11.943,9.088-17.066,0-7.238-5.395-13.126-12.026-13.126s-11.927,5.767-12.026,13.13c0,5.012,4.92,11.507,8.874,16.727C868.608,707.761,869.708,709.214,870.6,710.517Z"/>
      <path id="Trazado_246" data-name="Trazado 246" d="M870.6,693.2a5.1,5.1,0,1,0-5.1-5.1,5.121,5.121,0,0,0,5.1,5.1Z" fill="#fff"/>
      <path id="Trazado_247" data-name="Trazado 247" d="M870.6,693.474a5.4,5.4,0,1,1,3.794-1.58A5.334,5.334,0,0,1,870.6,693.474Zm0-10.2a4.826,4.826,0,1,0,4.826,4.826A4.831,4.831,0,0,0,870.6,683.274Z"/>
      <path id="Trazado_248" data-name="Trazado 248" d="M953,715.3V746h81.1V715.3Z" fill="#fff"/>
      <text id="Open_University" data-name="Open University" transform="translate(958.216 726.499)" font-size="11" font-family="SegoeUI-Semibold, Segoe UI" font-weight="600"><tspan x="0" y="0">Open University</tspan></text>
      <text id="of_Cyprus" data-name="of Cyprus" transform="translate(959.075 739.64)" font-size="11" font-family="SegoeUI-Semibold, Segoe UI" font-weight="600"><tspan x="0" y="0">of Cyprus</tspan></text>
      <path id="Trazado_249" data-name="Trazado 249" d="M1034.1,746.55H952.55V715.3h1.5v29.75h80.05Z"/>
      <path id="Trazado_250" data-name="Trazado 250" d="M1022.2,733.1c6.8,0,12.2,6,12.2,13.4,0,6.7-8.3,15.7-12.2,21.5-3.9-5.8-12.3-14.8-12.3-21.5,0-7.4,5.5-13.4,12.3-13.4Z" fill="#ff6b85"/>
      <path id="Trazado_251" data-name="Trazado 251" d="M1022.2,732.826a11.867,11.867,0,0,1,8.853,4.015,14.3,14.3,0,0,1,3.621,9.659c0,2.339-.977,5.137-2.985,8.555a95.389,95.389,0,0,1-5.992,8.61c-1.216,1.617-2.366,3.144-3.269,4.488l-.227.338-.227-.338c-.923-1.372-2.107-2.936-3.362-4.592a94.876,94.876,0,0,1-6-8.562c-2.009-3.394-2.985-6.174-2.985-8.5a14.215,14.215,0,0,1,3.672-9.66A12.005,12.005,0,0,1,1022.2,732.826Zm0,34.687c.873-1.271,1.937-2.686,3.059-4.177,3.951-5.251,8.867-11.786,8.867-16.836,0-7.238-5.35-13.126-11.926-13.126-6.631,0-12.026,5.888-12.026,13.126,0,5.015,4.92,11.511,8.874,16.73C1020.206,764.76,1021.306,766.211,1022.2,767.513Z"/>
      <path id="Trazado_252" data-name="Trazado 252" d="M1022.2,750.3a5.1,5.1,0,1,0-5.1-5.1,5.121,5.121,0,0,0,5.1,5.1Z" fill="#fff"/>
      <path id="Trazado_253" data-name="Trazado 253" d="M1022.2,750.574a5.4,5.4,0,1,1,3.794-1.58A5.334,5.334,0,0,1,1022.2,750.574Zm0-10.2a4.826,4.826,0,1,0,4.826,4.826A4.832,4.832,0,0,0,1022.2,740.374Z"/>
      <path id="Trazado_254" data-name="Trazado 254" d="M886.8,246.6c6.8,0,12.3,6,12.3,13.4,0,6.7-8.3,15.7-12.3,21.5-3.9-5.8-12.3-14.8-12.3-21.5.1-7.4,5.6-13.4,12.3-13.4Z" fill="#ff6b85"/>
      <path id="Trazado_255" data-name="Trazado 255" d="M886.8,246.326a12,12,0,0,1,8.9,4.014,14.215,14.215,0,0,1,3.672,9.66c0,5.307-5.1,12.011-9.2,17.4-1.165,1.531-2.266,2.978-3.149,4.258l-.228.331-.224-.334c-.923-1.372-2.107-2.936-3.362-4.592a94.873,94.873,0,0,1-6-8.562c-2.008-3.394-2.985-6.174-2.985-8.5a14.52,14.52,0,0,1,3.747-9.66A11.924,11.924,0,0,1,886.8,246.326Zm0,34.691c.847-1.207,1.864-2.543,2.935-3.951,4.049-5.321,9.088-11.943,9.088-17.066,0-7.238-5.395-13.126-12.026-13.126-6.533,0-11.928,5.89-12.026,13.13,0,5.012,4.92,11.507,8.874,16.727C884.808,278.261,885.908,279.714,886.8,281.017Z"/>
      <path id="Trazado_256" data-name="Trazado 256" d="M886.8,263.7a5.1,5.1,0,1,0-5.1-5.1,5.121,5.121,0,0,0,5.1,5.1Z" fill="#fff"/>
      <path id="Trazado_257" data-name="Trazado 257" d="M886.8,263.974a5.4,5.4,0,1,1,3.794-1.58A5.334,5.334,0,0,1,886.8,263.974Zm0-10.2a4.826,4.826,0,1,0,4.826,4.826A4.832,4.832,0,0,0,886.8,253.774Z"/>
      <path id="Trazado_258" data-name="Trazado 258" d="M878.6,284.4v15.4H986V284.4Z" fill="#fff"/>
      <text id="Daugavpils_University" data-name="Daugavpils University" transform="translate(885.255 296.5)" font-size="11" font-family="SegoeUI-Semibold, Segoe UI" font-weight="600"><tspan x="0" y="0">Daugavpils University</tspan></text>
      <path id="Trazado_259" data-name="Trazado 259" d="M1000.637,300.25H878.15V284.5h1.5v14.25h120.987Z" transform="translate(0 3)"/>
      <path id="Trazado_260" data-name="Trazado 260" d="M514.2,302.9v35.792h63.2V302.9Z" transform="translate(0 -7.292)" fill="#fff"/>
      <text id="Mentoring_Europe" data-name="Mentoring 
Europe" transform="translate(519.419 312.054)" font-size="11" font-family="SegoeUI-Semibold, Segoe UI" font-weight="600"><tspan x="0" y="0">Mentoring </tspan><tspan x="0" y="11">Europe</tspan></text>
      <path id="Trazado_261" data-name="Trazado 261" d="M570.3,340.3H513.75V302.9h1.5v35.9H570.3Z" transform="translate(0 -8.45)"/>
      <path id="Trazado_262" data-name="Trazado 262" d="M468.2,386.3v20.578h52V386.3Z" transform="translate(0 -5.278)" fill="#fff"/>
      <text id="ELARD" transform="translate(474.443 396.437)" font-size="11" font-family="SegoeUI-Semibold, Segoe UI" font-weight="600"><tspan x="0" y="0">ELARD</tspan></text>
      <path id="Trazado_263" data-name="Trazado 263" d="M520.2,405.05H467.75V386.3h1.5v17.25H520.2Z" transform="translate(0 -2.9)"/>
      <path id="Trazado_264" data-name="Trazado 264" d="M855.2,714.6v27.3h76.2V714.6Z" transform="translate(0 4.2)" fill="#fff"/>
      <text id="Hellenic_Open" data-name="Hellenic Open" transform="translate(859.372 728.734)" font-size="11" font-family="SegoeUI-Semibold, Segoe UI" font-weight="600"><tspan x="0" y="0">Hellenic Open</tspan></text>
      <text id="University" transform="translate(860.372 740.882)" font-size="11" font-family="SegoeUI-Semibold, Segoe UI" font-weight="600"><tspan x="0" y="0">University</tspan></text>
      <path id="Trazado_265" data-name="Trazado 265" d="M931.4,743.55H854.95V715.8h1.5v26.25H931.4Z" transform="translate(0 3)"/>
      <path id="Trazado_266" data-name="Trazado 266" d="M901,549.3c6.8,0,12.2,6,12.2,13.4,0,6.7-8.3,15.7-12.2,21.5-3.9-5.8-12.3-14.8-12.3-21.5,0-7.4,5.5-13.4,12.3-13.4Z" fill="#ff6b85"/>
      <path id="Trazado_267" data-name="Trazado 267" d="M901,549.026a11.867,11.867,0,0,1,8.853,4.015,14.3,14.3,0,0,1,3.621,9.659c0,2.339-.977,5.137-2.986,8.555a95.345,95.345,0,0,1-5.992,8.61c-1.216,1.617-2.365,3.144-3.269,4.488l-.227.338-.227-.338c-.923-1.372-2.107-2.936-3.362-4.592a94.881,94.881,0,0,1-6-8.562c-2.008-3.394-2.985-6.174-2.985-8.5a14.215,14.215,0,0,1,3.672-9.66A12.005,12.005,0,0,1,901,549.026Zm0,34.687c.872-1.271,1.937-2.686,3.059-4.177,3.951-5.251,8.868-11.786,8.868-16.836,0-7.238-5.35-13.126-11.926-13.126-6.631,0-12.026,5.888-12.026,13.126,0,5.015,4.92,11.511,8.874,16.73C899.007,580.96,900.106,582.411,901,583.713Z"/>
      <path id="Trazado_268" data-name="Trazado 268" d="M901,566.5a5.1,5.1,0,1,0-5.1-5.1,5.121,5.121,0,0,0,5.1,5.1Z" fill="#fff"/>
      <path id="Trazado_269" data-name="Trazado 269" d="M901,566.774a5.4,5.4,0,1,1,3.794-1.58A5.334,5.334,0,0,1,901,566.774Zm0-10.2a4.826,4.826,0,1,0,4.826,4.826A4.831,4.831,0,0,0,901,556.574Z"/>
      <path id="Trazado_270" data-name="Trazado 270" d="M600.2,409.7v28.5h60.6V409.7Z" fill="#fff"/>
      <text id="Open_Universiteit" data-name="Open
Universiteit" transform="translate(604.401 418.96)" font-size="11" font-family="SegoeUI-Semibold, Segoe UI" font-weight="600"><tspan x="0" y="0">Open</tspan><tspan x="0" y="13">Universiteit</tspan></text>
      <path id="Trazado_271" data-name="Trazado 271" d="M660.8,438.65H599.35V409.7h1.5v27.45H660.8Z"/>
      <path id="Trazado_272" data-name="Trazado 272" d="M893.2,587.2v31.5h150.2V587.2Z" transform="translate(0 -3)" fill="#fff"/>
      <text id="St._Cyril_and_St._Methodius_University_of_Veliko_Tarnovo" data-name="St. Cyril and St. Methodius
University of Veliko Tarnovo" transform="translate(899.216 595.451)" font-size="11" font-family="SegoeUI-Semibold, Segoe UI" font-weight="600"><tspan x="0" y="0">St. Cyril and St. Methodius</tspan><tspan x="0" y="15">University of Veliko Tarnovo</tspan></text>
      <path id="Trazado_273" data-name="Trazado 273" d="M1043.4,616.15H892.25V587.2h1.5v27.45H1043.4Z"/>
      <path id="Trazado_274" data-name="Trazado 274" d="M419.2,631.6c6.8,0,12.2,6,12.2,13.4,0,6.7-8.3,15.7-12.2,21.5-3.9-5.8-12.3-14.8-12.3-21.5,0-7.4,5.5-13.4,12.3-13.4Z" fill="#ff6b85"/>
      <path id="Trazado_275" data-name="Trazado 275" d="M419.2,631.326a11.867,11.867,0,0,1,8.853,4.015A14.3,14.3,0,0,1,431.674,645c0,2.339-.977,5.137-2.986,8.555a95.363,95.363,0,0,1-5.992,8.61c-1.216,1.617-2.366,3.144-3.269,4.488l-.227.338-.227-.338c-.923-1.372-2.107-2.936-3.362-4.592a94.877,94.877,0,0,1-6-8.562c-2.008-3.394-2.985-6.174-2.985-8.5a14.215,14.215,0,0,1,3.672-9.66A12.005,12.005,0,0,1,419.2,631.326Zm0,34.687c.872-1.271,1.937-2.686,3.059-4.177,3.951-5.251,8.868-11.786,8.868-16.836,0-7.238-5.35-13.126-11.926-13.126a11.463,11.463,0,0,0-8.5,3.836,13.669,13.669,0,0,0-3.528,9.29c0,5.015,4.92,11.511,8.874,16.73C417.207,663.26,418.306,664.711,419.2,666.013Z"/>
      <path id="Trazado_276" data-name="Trazado 276" d="M419.2,648.7a5.1,5.1,0,1,0-5.1-5.1,5.121,5.121,0,0,0,5.1,5.1Z" fill="#fff"/>
      <path id="Trazado_277" data-name="Trazado 277" d="M419.2,648.974a5.4,5.4,0,1,1,3.794-1.58A5.334,5.334,0,0,1,419.2,648.974Zm0-10.2a4.826,4.826,0,1,0,4.826,4.826A4.832,4.832,0,0,0,419.2,638.774Z"/>
      <path id="Trazado_278" data-name="Trazado 278" d="M401.7,671.1v32.2H529.95V671.1Z" fill="#fff"/>
      <text id="Universidad_Nacional_y" data-name="Universidad Nacional y" transform="translate(409.052 684.3)" font-size="11" font-family="SegoeUI-Semibold, Segoe UI" font-weight="600"><tspan x="0" y="0">Universidad Nacional y</tspan></text>
      <text id="Educación_a_Distancia" data-name="Educación a Distancia" transform="translate(408.661 696.414)" font-size="11" font-family="SegoeUI-Semibold, Segoe UI" font-weight="600"><tspan x="0" y="0">Educación a Distancia</tspan></text>
      <path id="Trazado_279" data-name="Trazado 279" d="M529.208,700.05H401.25V671.1h1.5v27.45H529.208Z" transform="translate(0 4)"/>
      <path id="Trazado_280" data-name="Trazado 280" d="M517.2,458.9v15.4h25.5V458.9Z" fill="#fff"/>
      <text id="IAU" transform="translate(523.388 469.093)" font-size="11" font-family="SegoeUI-Semibold, Segoe UI" font-weight="600"><tspan x="0" y="0">IAU</tspan></text>
      <path id="Trazado_281" data-name="Trazado 281" d="M542.7,474.75H516.65V458.9h1.5v14.35H542.7Z"/>
      <path id="Trazado_282" data-name="Trazado 282" d="M511.2,434.7c6.8,0,12.3,6,12.3,13.4,0,6.7-8.3,15.7-12.3,21.5-3.9-5.8-12.3-14.8-12.3-21.5,0-7.4,5.5-13.4,12.3-13.4Z" fill="#ab6eff"/>
      <path id="Trazado_283" data-name="Trazado 283" d="M511.2,434.46a11.971,11.971,0,0,1,8.877,4,14.181,14.181,0,0,1,3.663,9.637c0,5.3-5.1,11.995-9.193,17.377-1.165,1.532-2.266,2.978-3.15,4.259l-.2.29-.2-.292c-.923-1.373-2.108-2.937-3.363-4.594a94.857,94.857,0,0,1-6-8.559c-2.005-3.389-2.98-6.163-2.98-8.481a14.181,14.181,0,0,1,3.663-9.637A11.971,11.971,0,0,1,511.2,434.46Zm0,34.716c.853-1.217,1.88-2.567,2.963-3.99,4.052-5.325,9.095-11.953,9.095-17.087,0-7.257-5.41-13.16-12.06-13.16s-12.06,5.9-12.06,13.16c0,5.027,4.924,11.527,8.881,16.751C509.192,466.4,510.3,467.865,511.2,469.177Z"/>
      <path id="Trazado_284" data-name="Trazado 284" d="M511.2,451.9a5.1,5.1,0,1,0-5.1-5.1,5,5,0,0,0,5.1,5.1Z" fill="#fff"/>
      <path id="Trazado_285" data-name="Trazado 285" d="M511.2,452.14a5.377,5.377,0,0,1-3.91-1.637,5.045,5.045,0,0,1-1.43-3.707,5.331,5.331,0,1,1,5.34,5.344Zm0-10.2a4.866,4.866,0,0,0-4.86,4.86v.009a4.569,4.569,0,0,0,1.3,3.361,4.879,4.879,0,1,0,3.565-8.23Z"/>
      <path id="Trazado_286" data-name="Trazado 286" d="M756.9,623.6v31.609h61.5V623.6Z" transform="translate(0 -3.109)" fill="#fff"/>
      <text id="Fan_S._Noli" data-name="Fan S. Noli" transform="translate(761.101 632.7)" font-size="11" font-family="SegoeUI-Semibold, Segoe UI" font-weight="600"><tspan x="0" y="0">Fan S. Noli</tspan></text>
      <text id="University-2" data-name="University" transform="translate(761.138 644.89)" font-size="11" font-family="SegoeUI-Semibold, Segoe UI" font-weight="600"><tspan x="0" y="0">University</tspan></text>
      <path id="Trazado_287" data-name="Trazado 287" d="M818.4,655.659H755.95V623.6h1.5v30.559H818.4Z" transform="translate(0 -3.109)"/>
      <path id="Trazado_288" data-name="Trazado 288" d="M824.2,633.9c6.8,0,12.2,6,12.2,13.4,0,6.7-8.3,15.7-12.2,21.5C820.3,663,812,654,812,647.3c0-7.4,5.5-13.4,12.2-13.4Z" fill="#ff6b85"/>
      <path id="Trazado_289" data-name="Trazado 289" d="M824.2,633.66a11.833,11.833,0,0,1,8.828,4,14.268,14.268,0,0,1,3.612,9.636c0,2.332-.975,5.125-2.981,8.538a95.359,95.359,0,0,1-5.99,8.607c-1.217,1.617-2.366,3.145-3.27,4.489l-.2.3-.2-.3c-.9-1.344-2.053-2.872-3.27-4.489a95.346,95.346,0,0,1-5.99-8.607c-2.006-3.413-2.981-6.205-2.981-8.538C811.76,639.779,817.341,633.66,824.2,633.66Zm0,34.713c.877-1.281,1.952-2.71,3.086-4.217,3.954-5.255,8.874-11.8,8.874-16.856,0-7.257-5.365-13.16-11.96-13.16s-11.96,5.9-11.96,13.16c0,5.061,4.921,11.6,8.874,16.856C822.248,665.663,823.323,667.092,824.2,668.373Z"/>
      <path id="Trazado_290" data-name="Trazado 290" d="M824.2,651.1a5.1,5.1,0,1,0-5.1-5.1,5.121,5.121,0,0,0,5.1,5.1Z" fill="#fff"/>
      <path id="Trazado_291" data-name="Trazado 291" d="M824.2,651.34a5.361,5.361,0,1,1,3.769-1.57A5.3,5.3,0,0,1,824.2,651.34Zm0-10.2a4.86,4.86,0,1,0,4.86,4.86A4.866,4.866,0,0,0,824.2,641.14Z"/>
      <path id="Trazado_292" data-name="Trazado 292" d="M975.9,437v26.5H1085V437Z" fill="#fff"/>
      <text id="Ukrainian_Engineering" data-name="Ukrainian Engineering" transform="translate(982.161 444.148)" font-size="11" font-family="SegoeUI-Semibold, Segoe UI" font-weight="600"><tspan x="0" y="0">Ukrainian Engineering</tspan></text>
      <text id="Pedagogics_Academy" data-name="Pedagogics Academy" transform="translate(982.161 456.249)" font-size="11" font-family="SegoeUI-Semibold, Segoe UI" font-weight="600"><tspan x="0" y="0">Pedagogics Academy</tspan></text>
      <path id="Trazado_293" data-name="Trazado 293" d="M1097.1,467.8H975.45V437h1.5v29.3H1097.1Z" transform="translate(0 -3.853)"/>
      <path id="Trazado_294" data-name="Trazado 294" d="M1070.2,395.6c6.8,0,12.3,6,12.3,13.4,0,6.7-8.3,15.7-12.3,21.5-3.9-5.8-12.3-14.8-12.3-21.5,0-7.4,5.5-13.4,12.3-13.4Z" fill="#ff6b85"/>
      <path id="Trazado_295" data-name="Trazado 295" d="M1070.2,395.36a11.971,11.971,0,0,1,8.877,4A14.181,14.181,0,0,1,1082.74,409c0,5.3-5.1,11.994-9.193,17.377-1.166,1.532-2.266,2.978-3.15,4.259l-.2.29-.2-.292c-.923-1.373-2.108-2.937-3.363-4.594a94.841,94.841,0,0,1-6-8.559c-2.005-3.389-2.98-6.163-2.98-8.481a14.181,14.181,0,0,1,3.663-9.637A11.971,11.971,0,0,1,1070.2,395.36Zm0,34.716c.853-1.217,1.88-2.567,2.963-3.99,4.052-5.325,9.095-11.952,9.095-17.087,0-7.257-5.41-13.16-12.06-13.16s-12.06,5.9-12.06,13.16c0,5.027,4.924,11.527,8.881,16.751C1068.192,427.3,1069.3,428.765,1070.2,430.077Z"/>
      <path id="Trazado_296" data-name="Trazado 296" d="M1070.2,412.8a5.1,5.1,0,1,0-5.1-5.1,5.058,5.058,0,0,0,5.1,5.1Z" fill="#fff"/>
      <path id="Trazado_297" data-name="Trazado 297" d="M1070.2,413.04a5.361,5.361,0,1,1,3.769-1.57A5.3,5.3,0,0,1,1070.2,413.04Zm0-10.2a4.866,4.866,0,0,0-4.86,4.86,4.809,4.809,0,0,0,4.86,4.86,4.86,4.86,0,0,0,0-9.721Z"/>
      <path id="Trazado_298" data-name="Trazado 298" d="M759.8,597.2v17.2h79.737V597.2Z" transform="translate(-5.737 -1.7)" fill="#fff"/>
      <text id="MIT_University" data-name="MIT University" transform="translate(757.131 607.5)" font-size="11" font-family="SegoeUI-Semibold, Segoe UI" font-weight="600"><tspan x="0" y="0">MIT University</tspan></text>
      <path id="Trazado_299" data-name="Trazado 299" d="M839.837,614.85H759.35V597.2h1.5v16.15h78.987Z" transform="translate(-6.037 -1.7)"/>
      <path id="Trazado_300" data-name="Trazado 300" d="M844.9,596c6.8,0,12.3,6,12.3,13.4,0,6.7-8.3,15.7-12.3,21.5-3.9-5.8-12.3-14.8-12.3-21.5,0-7.4,5.5-13.4,12.3-13.4Z" fill="#ff6b85"/>
      <path id="Trazado_301" data-name="Trazado 301" d="M844.9,595.76a11.971,11.971,0,0,1,8.877,4,14.181,14.181,0,0,1,3.663,9.637c0,5.3-5.1,11.995-9.193,17.377-1.165,1.532-2.266,2.978-3.15,4.259l-.2.29-.2-.292c-.923-1.373-2.108-2.937-3.363-4.593a94.862,94.862,0,0,1-6-8.559c-2.005-3.389-2.98-6.163-2.98-8.481a14.181,14.181,0,0,1,3.663-9.637A11.971,11.971,0,0,1,844.9,595.76Zm0,34.716c.853-1.217,1.88-2.567,2.963-3.99,4.052-5.325,9.095-11.953,9.095-17.087,0-7.257-5.41-13.16-12.06-13.16a11.5,11.5,0,0,0-8.523,3.847,13.7,13.7,0,0,0-3.537,9.313c0,5.027,4.924,11.528,8.881,16.751C842.892,627.7,844,629.165,844.9,630.477Z"/>
      <path id="Trazado_302" data-name="Trazado 302" d="M844.9,613.2a5.1,5.1,0,1,0-5.1-5.1,5.121,5.121,0,0,0,5.1,5.1Z" fill="#fff"/>
      <path id="Trazado_303" data-name="Trazado 303" d="M844.9,613.44a5.361,5.361,0,1,1,3.769-1.57A5.3,5.3,0,0,1,844.9,613.44Zm0-10.2a4.86,4.86,0,1,0,4.86,4.86A4.866,4.866,0,0,0,844.9,603.24Z"/>
      <path id="Trazado_304" data-name="Trazado 304" d="M658.9,629.6V645h47.9V629.6Z" fill="#fff"/>
      <text id="UNIMED" transform="translate(662.122 640.796)" font-size="11" font-family="SegoeUI-Semibold, Segoe UI" font-weight="600"><tspan x="0" y="0">UNIMED</tspan></text>
      <path id="Trazado_305" data-name="Trazado 305" d="M706.8,645.45H658.45V629.6h1.5v14.35H706.8Z"/>
      <path id="Trazado_306" data-name="Trazado 306" d="M671.4,588.2c6.8,0,12.3,6,12.3,13.4,0,6.7-8.3,15.7-12.3,21.5-3.9-5.8-12.3-14.8-12.3-21.5,0-7.4,5.5-13.4,12.3-13.4Z" fill="#ab6eff"/>
      <path id="Trazado_307" data-name="Trazado 307" d="M671.4,587.96a11.971,11.971,0,0,1,8.877,4,14.181,14.181,0,0,1,3.663,9.637c0,5.3-5.1,11.995-9.193,17.377-1.165,1.532-2.266,2.978-3.15,4.259l-.2.29-.2-.292c-.923-1.373-2.108-2.937-3.363-4.593a94.862,94.862,0,0,1-6-8.559c-2.005-3.389-2.98-6.163-2.98-8.481a14.181,14.181,0,0,1,3.663-9.637A11.971,11.971,0,0,1,671.4,587.96Zm0,34.716c.853-1.217,1.88-2.567,2.963-3.99,4.052-5.325,9.095-11.953,9.095-17.087,0-7.257-5.41-13.16-12.06-13.16a11.5,11.5,0,0,0-8.523,3.847,13.7,13.7,0,0,0-3.537,9.313c0,5.027,4.924,11.528,8.881,16.751C669.392,619.9,670.5,621.365,671.4,622.677Z"/>
      <path id="Trazado_308" data-name="Trazado 308" d="M671.4,605.4a5.1,5.1,0,1,0-5.1-5.1,5.121,5.121,0,0,0,5.1,5.1Z" fill="#fff"/>
      <path id="Trazado_309" data-name="Trazado 309" d="M671.4,605.64a5.361,5.361,0,1,1,3.769-1.57A5.3,5.3,0,0,1,671.4,605.64Zm0-10.2a4.86,4.86,0,1,0,4.86,4.86A4.866,4.866,0,0,0,671.4,595.44Z"/>
      <path id="Trazado_310" data-name="Trazado 310" d="M364.1,339.7v18.023H477.8V339.7Z" transform="translate(0 -2.623)" fill="#fff"/>
      <text id="The_Open_University" data-name="The Open University" transform="translate(361.4 349.078)" font-size="11" font-family="SegoeUI-Semibold, Segoe UI" font-weight="600"><tspan x="0" y="0">The Open University</tspan></text>
      <path id="Trazado_311" data-name="Trazado 311" d="M486.218,360.849H363.65V339.7h1.5v19.649H486.218Z" transform="translate(-8.418 -5.299)"/>
      <path id="Trazado_312" data-name="Trazado 312" d="M477.8,326.3c6.8,0,12.2,6,12.2,13.4,0,6.7-8.3,15.7-12.2,21.5-3.9-5.8-12.3-14.8-12.3-21.5.1-7.4,5.5-13.4,12.3-13.4Z" fill="#ff6b85"/>
      <path id="Trazado_313" data-name="Trazado 313" d="M477.8,326.06a11.833,11.833,0,0,1,8.827,4,14.268,14.268,0,0,1,3.612,9.636c0,2.332-.975,5.125-2.981,8.538a95.342,95.342,0,0,1-5.99,8.607c-1.217,1.617-2.366,3.145-3.27,4.489l-.2.3-.2-.3c-.923-1.373-2.108-2.937-3.363-4.594a94.853,94.853,0,0,1-6-8.559c-2.005-3.389-2.98-6.163-2.98-8.481a14.525,14.525,0,0,1,3.7-9.637A11.889,11.889,0,0,1,477.8,326.06Zm0,34.713c.877-1.281,1.952-2.71,3.086-4.217,3.954-5.255,8.874-11.8,8.874-16.856,0-7.257-5.365-13.16-11.96-13.16-6.663,0-11.961,5.782-12.06,13.164,0,5.024,4.924,11.524,8.881,16.748C475.791,358,476.9,359.462,477.8,360.773Z"/>
      <path id="Trazado_314" data-name="Trazado 314" d="M477.8,343.5a5.1,5.1,0,1,0-5.1-5.1,5.121,5.121,0,0,0,5.1,5.1Z" fill="#fff"/>
      <path id="Trazado_315" data-name="Trazado 315" d="M477.8,343.74a5.361,5.361,0,1,1,3.769-1.57A5.3,5.3,0,0,1,477.8,343.74Zm0-10.2a4.86,4.86,0,1,0,4.86,4.86A4.866,4.866,0,0,0,477.8,333.54Z"/>
      <path id="Trazado_316" data-name="Trazado 316" d="M708,347.4v15.4h73.9V347.4Z" fill="#fff"/>
      <text id="Stifterverband" transform="translate(714.161 356.578)" font-size="11" font-family="SegoeUI-Semibold, Segoe UI" font-weight="600"><tspan x="0" y="0">Stifterverband</tspan></text>
      <path id="Trazado_317" data-name="Trazado 317" d="M791.966,363.25H707.45V347.4h1.5v14.35h83.016Z"/>
      <path id="Trazado_318" data-name="Trazado 318" d="M700.4,327.5c6.8,0,12.3,6,12.3,13.4,0,6.7-8.3,15.7-12.3,21.5-3.9-5.8-12.3-14.8-12.3-21.5.1-7.4,5.5-13.4,12.3-13.4Z" fill="#3885ff"/>
      <path id="Trazado_319" data-name="Trazado 319" d="M700.4,327.26a11.971,11.971,0,0,1,8.877,4,14.181,14.181,0,0,1,3.663,9.637c0,5.3-5.1,11.995-9.193,17.377-1.165,1.532-2.266,2.978-3.15,4.259l-.2.29-.2-.292c-.923-1.373-2.108-2.937-3.363-4.593a94.866,94.866,0,0,1-6-8.559c-2.005-3.389-2.98-6.163-2.98-8.481a14.525,14.525,0,0,1,3.7-9.637A11.889,11.889,0,0,1,700.4,327.26Zm0,34.716c.853-1.217,1.88-2.567,2.963-3.99,4.052-5.325,9.095-11.953,9.095-17.087,0-7.257-5.41-13.16-12.06-13.16s-11.961,5.782-12.06,13.164c0,5.024,4.924,11.524,8.881,16.748C698.392,359.2,699.5,360.665,700.4,361.977Z"/>
      <path id="Trazado_320" data-name="Trazado 320" d="M700.4,344.6a5.1,5.1,0,1,0-5.1-5.1,5.121,5.121,0,0,0,5.1,5.1Z" fill="#fff"/>
      <path id="Trazado_321" data-name="Trazado 321" d="M700.4,344.84a5.361,5.361,0,1,1,3.769-1.57A5.3,5.3,0,0,1,700.4,344.84Zm0-10.2a4.86,4.86,0,1,0,4.86,4.86A4.866,4.866,0,0,0,700.4,334.64Z"/>
      <path id="Trazado_322" data-name="Trazado 322" d="M860.1,614.8v15.5h34V614.8Z" fill="#fff"/>
      <text id="DNA" transform="translate(865.294 624.992)" font-size="11" font-family="SegoeUI-Semibold, Segoe UI" font-weight="600"><tspan x="0" y="0">DNA</tspan></text>
      <path id="Trazado_323" data-name="Trazado 323" d="M894.1,630.85H859.65V614.8h1.5v14.55H894.1Z"/>
      <path id="Trazado_324" data-name="Trazado 324" d="M860.1,632.9v15.5h34V632.9Z" fill="#fff"/>
      <text id="BIA" transform="translate(866.294 643.085)" font-size="11" font-family="SegoeUI-Semibold, Segoe UI" font-weight="600"><tspan x="0" y="0">BIA</tspan></text>
      <path id="Trazado_325" data-name="Trazado 325" d="M894.1,648.95H859.65V632.9h1.5v14.55H894.1Z"/>
      <path id="Trazado_326" data-name="Trazado 326" d="M871.4,574.3c6.8,0,12.2,6,12.2,13.4,0,6.7-8.3,15.7-12.2,21.5-3.9-5.8-12.3-14.8-12.3-21.5.1-7.4,5.6-13.4,12.3-13.4Z" fill="#3885ff"/>
      <path id="Trazado_327" data-name="Trazado 327" d="M871.4,574.06a11.833,11.833,0,0,1,8.828,4,14.268,14.268,0,0,1,3.612,9.636c0,2.332-.975,5.125-2.981,8.538a95.359,95.359,0,0,1-5.99,8.607c-1.217,1.617-2.366,3.145-3.27,4.489l-.2.3-.2-.3c-.923-1.373-2.108-2.937-3.363-4.593a94.86,94.86,0,0,1-6-8.559c-2.005-3.389-2.98-6.163-2.98-8.481a14.485,14.485,0,0,1,3.738-9.637A11.89,11.89,0,0,1,871.4,574.06Zm0,34.713c.877-1.281,1.952-2.71,3.086-4.217,3.954-5.255,8.874-11.8,8.874-16.856,0-7.257-5.365-13.16-11.96-13.16-6.552,0-11.962,5.905-12.06,13.164,0,5.024,4.924,11.524,8.881,16.748C869.391,606,870.5,607.462,871.4,608.773Z"/>
      <path id="Trazado_328" data-name="Trazado 328" d="M871.4,591.5a5.1,5.1,0,1,0-5.1-5.1,5.121,5.121,0,0,0,5.1,5.1Z" fill="#fff"/>
      <path id="Trazado_329" data-name="Trazado 329" d="M871.4,591.74a5.361,5.361,0,1,1,3.769-1.57A5.3,5.3,0,0,1,871.4,591.74Zm0-10.2a4.86,4.86,0,1,0,4.86,4.86A4.866,4.866,0,0,0,871.4,581.54Z"/>
      <path id="Trazado_330" data-name="Trazado 330" d="M444.8,580.7v18.249h66.3V580.7Z" transform="translate(-8.904 -2.849)" fill="#fff"/>
      <text id="SE_CARTYS" data-name="SE CARTYS" transform="translate(442.048 590.851)" font-size="11" font-family="SegoeUI-Semibold, Segoe UI" font-weight="600"><tspan x="0" y="0">SE CARTYS</tspan></text>
      <path id="Trazado_331" data-name="Trazado 331" d="M511.4,599.4H444.35V580.7h1.5v17.2H511.4Z" transform="translate(-9.204 -2.849)"/>
      <path id="Trazado_332" data-name="Trazado 332" d="M511.9,578.9c6.8,0,12.3,6,12.3,13.4,0,6.7-8.3,15.7-12.3,21.5-3.9-5.8-12.3-14.8-12.3-21.5.1-7.4,5.6-13.4,12.3-13.4Z" fill="#3885ff"/>
      <path id="Trazado_333" data-name="Trazado 333" d="M511.9,578.626a12.005,12.005,0,0,1,8.9,4.014,14.215,14.215,0,0,1,3.672,9.66c0,5.307-5.1,12.011-9.2,17.4-1.165,1.531-2.266,2.978-3.149,4.258l-.228.331-.224-.334c-.923-1.372-2.107-2.936-3.362-4.592a94.886,94.886,0,0,1-6-8.562c-2.008-3.394-2.985-6.174-2.985-8.5a14.52,14.52,0,0,1,3.747-9.66A11.925,11.925,0,0,1,511.9,578.626Zm0,34.691c.848-1.207,1.864-2.543,2.935-3.951,4.049-5.321,9.088-11.943,9.088-17.066,0-7.238-5.395-13.126-12.026-13.126-6.533,0-11.928,5.89-12.026,13.13,0,5.012,4.92,11.507,8.874,16.727C509.908,610.561,511.008,612.015,511.9,613.317Z"/>
      <path id="Trazado_334" data-name="Trazado 334" d="M511.9,596.1a5.1,5.1,0,1,0-5.1-5.1,5.121,5.121,0,0,0,5.1,5.1Z" fill="#fff"/>
      <path id="Trazado_335" data-name="Trazado 335" d="M511.9,596.374a5.4,5.4,0,1,1,3.794-1.58A5.334,5.334,0,0,1,511.9,596.374Zm0-10.2A4.826,4.826,0,1,0,516.726,591,4.832,4.832,0,0,0,511.9,586.174Z"/>
      <path id="Trazado_336" data-name="Trazado 336" d="M512,590.7c6.8,0,12.2,6,12.2,13.4,0,6.7-8.3,15.7-12.2,21.5-3.9-5.8-12.3-14.8-12.3-21.5.1-7.4,5.5-13.4,12.3-13.4Z" fill="#ff6b85"/>
      <path id="Trazado_337" data-name="Trazado 337" d="M512,590.426a11.867,11.867,0,0,1,8.853,4.015,14.3,14.3,0,0,1,3.621,9.659c0,2.339-.977,5.137-2.985,8.555a95.369,95.369,0,0,1-5.992,8.61c-1.217,1.617-2.366,3.144-3.269,4.488l-.227.338-.227-.338c-.923-1.372-2.107-2.936-3.362-4.592a94.881,94.881,0,0,1-6-8.562c-2.008-3.394-2.985-6.174-2.985-8.5a14.56,14.56,0,0,1,3.709-9.66A11.923,11.923,0,0,1,512,590.426Zm0,34.687c.872-1.271,1.937-2.686,3.059-4.177,3.951-5.251,8.868-11.786,8.868-16.836,0-7.238-5.35-13.126-11.926-13.126-6.644,0-11.927,5.767-12.026,13.13,0,5.012,4.92,11.507,8.874,16.727C510.007,622.36,511.106,623.812,512,625.113Z"/>
      <path id="Trazado_338" data-name="Trazado 338" d="M512,607.8a5.1,5.1,0,1,0-5.1-5.1,5.058,5.058,0,0,0,5.1,5.1Z" fill="#fff"/>
      <path id="Trazado_339" data-name="Trazado 339" d="M512,608.04a5.361,5.361,0,1,1,3.769-1.57A5.327,5.327,0,0,1,512,608.04Zm0-10.2a4.866,4.866,0,0,0-4.86,4.86,4.809,4.809,0,0,0,4.86,4.86,4.86,4.86,0,1,0,0-9.721Z"/>
      <path id="Trazado_340" data-name="Trazado 340" d="M550.3,422.8v15.4h40.8V422.8Z" fill="#fff"/>
      <text id="EADTU" transform="translate(555.56 432.96)" font-size="11" font-family="SegoeUI-Semibold, Segoe UI" font-weight="600"><tspan x="0" y="0">EADTU</tspan></text>
      <path id="Trazado_341" data-name="Trazado 341" d="M591.1,438.65H549.85V422.8h1.5v14.35H591.1Z"/>
      <path id="Trazado_342" data-name="Trazado 342" d="M562.7,384.5c6.8,0,12.3,6,12.3,13.4,0,6.7-8.3,15.7-12.3,21.5-3.9-5.8-12.3-14.8-12.3-21.5,0-7.4,5.5-13.4,12.3-13.4Z" fill="#ab6eff"/>
      <path id="Trazado_343" data-name="Trazado 343" d="M562.7,384.26a11.971,11.971,0,0,1,8.877,4,14.181,14.181,0,0,1,3.663,9.637c0,5.3-5.1,11.995-9.193,17.377-1.165,1.532-2.266,2.978-3.15,4.259l-.2.29-.2-.292c-.923-1.373-2.108-2.937-3.363-4.593a94.866,94.866,0,0,1-6-8.559c-2.005-3.389-2.98-6.163-2.98-8.481a14.181,14.181,0,0,1,3.663-9.637A11.971,11.971,0,0,1,562.7,384.26Zm0,34.716c.853-1.217,1.88-2.567,2.963-3.99,4.052-5.325,9.095-11.953,9.095-17.087,0-7.257-5.41-13.16-12.06-13.16s-12.06,5.9-12.06,13.16c0,5.027,4.924,11.528,8.881,16.751C560.692,416.2,561.8,417.665,562.7,418.977Z"/>
      <path id="Trazado_344" data-name="Trazado 344" d="M562.7,401.6a5.1,5.1,0,1,0-5.1-5.1,5.121,5.121,0,0,0,5.1,5.1Z" fill="#fff"/>
      <path id="Trazado_345" data-name="Trazado 345" d="M562.7,401.874a5.4,5.4,0,1,1,3.794-1.58A5.334,5.334,0,0,1,562.7,401.874Zm0-10.2a4.826,4.826,0,1,0,4.826,4.826A4.832,4.832,0,0,0,562.7,391.674Z"/>
      <path id="Trazado_346" data-name="Trazado 346" d="M523,522.8v15.4h40.7V522.8Z" fill="#fff"/>
      <text id="FIED" transform="translate(529.208 531.999)" font-size="11" font-family="SegoeUI-Semibold, Segoe UI" font-weight="600"><tspan x="0" y="0">FIED</tspan></text>
      <path id="Trazado_347" data-name="Trazado 347" d="M563.7,538.65H522.55V522.8h1.5v14.35H563.7Z"/>
      <path id="Trazado_348" data-name="Trazado 348" d="M565.2,508.7c6.8,0,12.2,6,12.2,13.4,0,6.7-8.3,15.7-12.2,21.5-3.9-5.8-12.3-14.8-12.3-21.5.1-7.4,5.5-13.4,12.3-13.4Z" fill="#ab6eff"/>
      <path id="Trazado_349" data-name="Trazado 349" d="M565.2,508.46a11.833,11.833,0,0,1,8.828,4,14.268,14.268,0,0,1,3.612,9.636c0,2.332-.975,5.125-2.981,8.538a95.359,95.359,0,0,1-5.99,8.607c-1.217,1.617-2.366,3.145-3.27,4.489l-.2.3-.2-.3c-.923-1.373-2.108-2.937-3.363-4.593a94.86,94.86,0,0,1-6-8.559c-2.005-3.389-2.98-6.163-2.98-8.481a14.525,14.525,0,0,1,3.7-9.637A11.888,11.888,0,0,1,565.2,508.46Zm0,34.713c.877-1.281,1.952-2.71,3.086-4.217,3.954-5.255,8.874-11.8,8.874-16.856,0-7.257-5.365-13.16-11.96-13.16-6.663,0-11.961,5.782-12.06,13.164,0,5.024,4.924,11.524,8.881,16.748C563.191,540.4,564.3,541.862,565.2,543.173Z"/>
      <path id="Trazado_350" data-name="Trazado 350" d="M565.2,525.8a5.1,5.1,0,1,0-5.1-5.1,5.121,5.121,0,0,0,5.1,5.1Z" fill="#fff"/>
      <path id="Trazado_351" data-name="Trazado 351" d="M565.2,526.04a5.361,5.361,0,1,1,3.769-1.57A5.3,5.3,0,0,1,565.2,526.04Zm0-10.2a4.86,4.86,0,1,0,4.86,4.86A4.866,4.866,0,0,0,565.2,515.84Z"/>
      <path id="Trazado_352" data-name="Trazado 352" d="M527.8,364.2v17.2h65.1V364.2Z" transform="translate(0 -1.8)" fill="#fff"/>
      <text id="Brighlands" transform="translate(532.021 374.359)" font-size="11" font-family="SegoeUI-Semibold, Segoe UI" font-weight="600"><tspan x="0" y="0">Brighlands</tspan></text>
      <path id="Trazado_353" data-name="Trazado 353" d="M595.4,381.85H527.35V364.2h1.5v16.15H595.4Z" transform="translate(0 -1.8)"/>
      <path id="Trazado_354" data-name="Trazado 354" d="M594.6,372.6c6.8,0,12.3,6,12.3,13.4,0,6.7-8.3,15.7-12.3,21.5-3.9-5.8-12.3-14.8-12.3-21.5.1-7.4,5.6-13.4,12.3-13.4Z" fill="#3885ff"/>
      <path id="Trazado_355" data-name="Trazado 355" d="M594.6,372.326a12,12,0,0,1,8.9,4.014,14.215,14.215,0,0,1,3.672,9.66c0,5.307-5.1,12.011-9.2,17.4-1.165,1.531-2.266,2.978-3.149,4.258l-.228.331-.224-.334c-.923-1.372-2.107-2.936-3.362-4.592a94.873,94.873,0,0,1-6-8.562c-2.008-3.394-2.985-6.174-2.985-8.5a14.52,14.52,0,0,1,3.747-9.66A11.924,11.924,0,0,1,594.6,372.326Zm0,34.691c.847-1.207,1.864-2.543,2.935-3.951,4.049-5.321,9.088-11.943,9.088-17.066,0-7.238-5.395-13.126-12.026-13.126-6.533,0-11.928,5.89-12.026,13.13,0,5.012,4.92,11.507,8.874,16.727C592.608,404.261,593.708,405.714,594.6,407.017Z"/>
      <path id="Trazado_356" data-name="Trazado 356" d="M594.6,389.8a5.1,5.1,0,1,0-5.1-5.1,5.121,5.121,0,0,0,5.1,5.1Z" fill="#fff"/>
      <path id="Trazado_357" data-name="Trazado 357" d="M594.6,390.074a5.4,5.4,0,1,1,3.794-1.58A5.334,5.334,0,0,1,594.6,390.074Zm0-10.2a4.826,4.826,0,1,0,4.826,4.826A4.832,4.832,0,0,0,594.6,379.874Z"/>
      <path id="Trazado_358" data-name="Trazado 358" d="M594.7,384.4c6.8,0,12.3,6,12.3,13.4,0,6.7-8.3,15.7-12.3,21.5-3.9-5.8-12.3-14.8-12.3-21.5.1-7.4,5.6-13.4,12.3-13.4Z" fill="#ff6b85"/>
      <path id="Trazado_359" data-name="Trazado 359" d="M594.7,384.126a12,12,0,0,1,8.9,4.014,14.215,14.215,0,0,1,3.672,9.66c0,5.307-5.1,12.011-9.2,17.4-1.165,1.531-2.266,2.978-3.149,4.258l-.228.331-.224-.334c-.923-1.372-2.107-2.936-3.362-4.592a94.873,94.873,0,0,1-6-8.562c-2.008-3.394-2.985-6.174-2.985-8.5a14.52,14.52,0,0,1,3.747-9.66A11.924,11.924,0,0,1,594.7,384.126Zm0,34.691c.847-1.207,1.864-2.543,2.935-3.951,4.049-5.321,9.088-11.943,9.088-17.066,0-7.238-5.395-13.126-12.026-13.126-6.533,0-11.928,5.89-12.026,13.13,0,5.012,4.92,11.507,8.874,16.727C592.708,416.061,593.808,417.514,594.7,418.817Z"/>
      <path id="Trazado_360" data-name="Trazado 360" d="M594.7,401.5a5.1,5.1,0,1,0-5.1-5.1,5.058,5.058,0,0,0,5.1,5.1Z" fill="#fff"/>
      <path id="Trazado_361" data-name="Trazado 361" d="M594.7,401.74a5.361,5.361,0,1,1,3.769-1.57A5.327,5.327,0,0,1,594.7,401.74Zm0-10.2a4.86,4.86,0,1,0,4.86,4.86A4.866,4.866,0,0,0,594.7,391.54Z"/>
      <path id="Trazado_362" data-name="Trazado 362" d="M625.9,376.4v29.1h88.261V376.4Z" fill="#fff"/>
      <text id="Fern_Universität_in_Hagen" data-name="Fern Universität
in Hagen" transform="translate(632.901 386.5)" font-size="11" font-family="SegoeUI-Semibold, Segoe UI" font-weight="600"><tspan x="0" y="0">Fern Universität</tspan><tspan x="0" y="13">in Hagen</tspan></text>
      <path id="Trazado_363" data-name="Trazado 363" d="M714.161,406.05H625.45V376.4h1.5v28.15h87.211Z"/>
      <path id="Trazado_364" data-name="Trazado 364" d="M620.6,351.6c6.8,0,12.3,6,12.3,13.4,0,6.7-8.3,15.7-12.3,21.5-3.9-5.8-12.3-14.8-12.3-21.5,0-7.4,5.5-13.4,12.3-13.4Z" fill="#ff6b85"/>
      <path id="Trazado_365" data-name="Trazado 365" d="M620.6,351.326a12,12,0,0,1,8.9,4.014,14.215,14.215,0,0,1,3.672,9.66c0,5.307-5.1,12.011-9.2,17.4-1.165,1.531-2.266,2.978-3.149,4.258l-.228.331-.224-.334c-.923-1.372-2.107-2.936-3.362-4.592a94.873,94.873,0,0,1-6-8.562c-2.008-3.394-2.985-6.174-2.985-8.5a14.215,14.215,0,0,1,3.672-9.66A12,12,0,0,1,620.6,351.326Zm0,34.691c.847-1.207,1.864-2.543,2.935-3.951,4.049-5.321,9.088-11.943,9.088-17.066,0-7.238-5.395-13.126-12.026-13.126S608.574,357.762,608.574,365c0,5.015,4.92,11.511,8.874,16.73C618.608,383.261,619.708,384.714,620.6,386.017Z"/>
      <path id="Trazado_366" data-name="Trazado 366" d="M620.6,368.7a5.1,5.1,0,1,0-5.1-5.1,5.121,5.121,0,0,0,5.1,5.1Z" fill="#fff"/>
      <path id="Trazado_367" data-name="Trazado 367" d="M620.6,368.974a5.4,5.4,0,1,1,3.794-1.58A5.334,5.334,0,0,1,620.6,368.974Zm0-10.2a4.826,4.826,0,1,0,4.826,4.826A4.832,4.832,0,0,0,620.6,358.774Z"/>
      <path id="Trazado_368" data-name="Trazado 368" d="M198.2,53.7c6.8,0,12.3,6,12.3,13.4,0,6.7-8.3,15.7-12.3,21.5-3.9-5.8-12.3-14.8-12.3-21.5,0-7.4,5.5-13.4,12.3-13.4Z" transform="translate(0 93)" fill="#ff6b85"/>
      <path id="Trazado_369" data-name="Trazado 369" d="M198.2,53.426a12,12,0,0,1,8.9,4.014,14.215,14.215,0,0,1,3.672,9.66c0,5.307-5.1,12.011-9.2,17.4-1.165,1.531-2.266,2.978-3.149,4.258l-.228.331-.224-.334c-.923-1.372-2.107-2.936-3.362-4.592a94.878,94.878,0,0,1-6-8.562c-2.008-3.394-2.985-6.174-2.985-8.5a14.215,14.215,0,0,1,3.672-9.66A12,12,0,0,1,198.2,53.426Zm0,34.691c.848-1.207,1.864-2.543,2.935-3.951,4.049-5.321,9.088-11.943,9.088-17.066,0-7.238-5.395-13.126-12.026-13.126S186.174,59.862,186.174,67.1c0,5.015,4.92,11.511,8.874,16.73C196.208,85.361,197.308,86.814,198.2,88.117Z" transform="translate(0 93)"/>
      <path id="Trazado_370" data-name="Trazado 370" d="M198.2,70.8a5.1,5.1,0,1,0-5.1-5.1,5.121,5.121,0,0,0,5.1,5.1Z" transform="translate(0 93.4)" fill="#fff"/>
      <path id="Trazado_371" data-name="Trazado 371" d="M198.2,71.074a5.4,5.4,0,1,1,3.794-1.58A5.334,5.334,0,0,1,198.2,71.074Zm0-10.2a4.826,4.826,0,1,0,4.826,4.826A4.832,4.832,0,0,0,198.2,60.874Z" transform="translate(0 93)"/>
      <path id="Trazado_372" data-name="Trazado 372" d="M113.8,712.6c7.1,0,12.8,6.3,12.8,14,0,7-8.7,16.4-12.8,22.4-4.1-6.1-12.8-15.5-12.8-22.4,0-7.7,5.7-14,12.8-14Z" transform="translate(78.879 -227.233)" fill="#3885ff"/>
      <path id="Trazado_373" data-name="Trazado 373" d="M113.8,712.35a12.432,12.432,0,0,1,9.247,4.194,14.857,14.857,0,0,1,3.8,10.056c0,5.5-5.271,12.436-9.506,18.012-1.24,1.632-2.411,3.174-3.337,4.53l-.208.3-.206-.306c-.966-1.437-2.2-3.068-3.5-4.8a100.4,100.4,0,0,1-6.246-8.945c-2.085-3.529-3.1-6.407-3.1-8.8a14.857,14.857,0,0,1,3.8-10.056A12.432,12.432,0,0,1,113.8,712.35Zm0,36.207c.9-1.29,1.991-2.73,3.144-4.248,4.19-5.516,9.4-12.381,9.4-17.709,0-7.582-5.63-13.75-12.55-13.75s-12.55,6.168-12.55,13.75c0,2.3.991,5.095,3.029,8.545a100.034,100.034,0,0,0,6.215,8.9C111.71,745.656,112.863,747.185,113.8,748.557Z" transform="translate(78.879 -227.233)"/>
      <path id="Trazado_374" data-name="Trazado 374" d="M113.7,730.5a5.3,5.3,0,1,0-5.3-5.3,5.335,5.335,0,0,0,5.3,5.3Z" transform="translate(78.879 -226.934)" fill="#fff"/>
      <path id="Trazado_375" data-name="Trazado 375" d="M113.7,730.75a5.585,5.585,0,1,1,3.914-1.636A5.507,5.507,0,0,1,113.7,730.75Zm0-10.6a5.05,5.05,0,1,0,5.05,5.05A5.056,5.056,0,0,0,113.7,720.15Z" transform="translate(78.879 -227.233)"/>
      <path id="Trazado_376" data-name="Trazado 376" d="M64.611,753.2c-4.225,0-7.711,4.367-7.711,9.661h0c0,5.294,3.486,9.661,7.711,9.661H169.283c4.225,0,7.711-4.367,7.711-9.661h0c0-5.294-3.486-9.661-7.711-9.661Z" transform="translate(76.799 -226)" fill="#fff"/>
      <text id="Non-academic_network" data-name="Non-academic network" transform="translate(140.925 540.317)" font-size="10" font-family="SegoeUI-Semibold, Segoe UI" font-weight="600"><tspan x="0" y="0">Non-academic network</tspan></text>
      <path id="Trazado_377" data-name="Trazado 377" d="M64.611,752.95H169.284a7.3,7.3,0,0,1,5.632,2.843,10.954,10.954,0,0,1,0,13.5,7.3,7.3,0,0,1-5.632,2.843H64.611a7.3,7.3,0,0,1-5.632-2.843,10.954,10.954,0,0,1,0-13.5A7.3,7.3,0,0,1,64.611,752.95Zm104.673,18.69c4.114,0,7.461-4.08,7.461-9.095s-3.347-9.095-7.461-9.095H64.611c-4.114,0-7.461,4.08-7.461,9.095s3.347,9.095,7.461,9.095Z" transform="translate(76.799 -225.368)"/>
      <path id="Trazado_378" data-name="Trazado 378" d="M113.8,548.4c7.1,0,12.8,6.3,12.8,14,0,7-8.7,16.4-12.8,22.4-4.1-6.1-12.8-15.5-12.8-22.4,0-7.7,5.7-14,12.8-14Z" transform="translate(78.878 -211.5)" fill="#ff6b85"/>
      <path id="Trazado_379" data-name="Trazado 379" d="M113.8,548.15a12.432,12.432,0,0,1,9.247,4.194,14.857,14.857,0,0,1,3.8,10.056c0,5.5-5.271,12.436-9.506,18.012-1.24,1.632-2.411,3.174-3.337,4.53l-.208.3-.206-.306c-.966-1.437-2.2-3.068-3.5-4.8a100.4,100.4,0,0,1-6.246-8.945c-2.085-3.529-3.1-6.407-3.1-8.8a14.857,14.857,0,0,1,3.8-10.056A12.432,12.432,0,0,1,113.8,548.15Zm0,36.207c.9-1.29,1.991-2.73,3.144-4.248,4.19-5.516,9.4-12.381,9.4-17.709,0-7.582-5.63-13.75-12.55-13.75s-12.55,6.168-12.55,13.75c0,2.3.991,5.095,3.029,8.545a100.034,100.034,0,0,0,6.215,8.9C111.71,581.456,112.863,582.985,113.8,584.357Z" transform="translate(78.878 -211.323)"/>
      <path id="Trazado_380" data-name="Trazado 380" d="M113.7,566.3a5.3,5.3,0,1,0-5.3-5.3,5.335,5.335,0,0,0,5.3,5.3Z" transform="translate(79.225 -211.023)" fill="#fff"/>
      <path id="Trazado_381" data-name="Trazado 381" d="M113.7,566.55a5.585,5.585,0,1,1,3.914-1.636A5.507,5.507,0,0,1,113.7,566.55Zm0-10.6a5.05,5.05,0,1,0,5.05,5.05A5.056,5.056,0,0,0,113.7,555.95Z" transform="translate(78.978 -211.2)"/>
      <path id="Trazado_382" data-name="Trazado 382" d="M94.309,589a8.547,8.547,0,0,0-8.409,8.587h0a8.547,8.547,0,0,0,8.409,8.587h47.344a8.547,8.547,0,0,0,8.409-8.587h0A8.547,8.547,0,0,0,141.653,589Z" transform="translate(74.943 -209.474)" fill="#fff"/>
      <text id="University-3" data-name="University" transform="translate(169.159 391.584)" font-size="10" font-family="SegoeUI-Semibold, Segoe UI" font-weight="600"><tspan x="0" y="0">University</tspan></text>
      <path id="Trazado_383" data-name="Trazado 383" d="M94.374,588.75h47.708a8.465,8.465,0,0,1,6.159,2.7,9.374,9.374,0,0,1,0,12.885,8.465,8.465,0,0,1-6.159,2.7H94.374a8.465,8.465,0,0,1-6.159-2.7,9.374,9.374,0,0,1,0-12.885A8.465,8.465,0,0,1,94.374,588.75Zm47.708,17.775a8.648,8.648,0,0,0,0-17.275H94.374a8.648,8.648,0,0,0,0,17.275Z" transform="translate(74.45 -209.475)"/>
      <path id="Trazado_384" data-name="Trazado 384" d="M113.8,630c7.1,0,12.8,6.3,12.8,14,0,7-8.7,16.4-12.8,22.4C109.6,660.3,101,651,101,644c0-7.7,5.7-14,12.8-14Z" transform="translate(78.878 -218)" fill="#ab6eff"/>
      <path id="Trazado_385" data-name="Trazado 385" d="M113.8,629.75a12.432,12.432,0,0,1,9.247,4.194A14.857,14.857,0,0,1,126.85,644c0,5.5-5.271,12.436-9.506,18.012-1.24,1.632-2.411,3.174-3.337,4.53l-.206.3-.207-.3c-.933-1.356-2.091-2.877-3.316-4.489A99.6,99.6,0,0,1,103.916,653c-2.131-3.592-3.166-6.537-3.166-9a14.857,14.857,0,0,1,3.8-10.056A12.432,12.432,0,0,1,113.8,629.75Zm0,36.211c.9-1.291,1.992-2.732,3.146-4.251,4.19-5.516,9.4-12.381,9.4-17.709,0-7.582-5.63-13.75-12.55-13.75s-12.55,6.168-12.55,13.75c0,5.354,5.227,12.228,9.426,17.751C111.817,663.25,112.9,664.672,113.8,665.961Z" transform="translate(79.125 -218)"/>
      <path id="Trazado_386" data-name="Trazado 386" d="M113.7,647.9a5.3,5.3,0,1,0-5.3-5.3,5.335,5.335,0,0,0,5.3,5.3Z" transform="translate(79.125 -218)" fill="#fff"/>
      <path id="Trazado_387" data-name="Trazado 387" d="M113.7,648.15a5.585,5.585,0,1,1,3.914-1.636A5.507,5.507,0,0,1,113.7,648.15Zm0-10.6a5.05,5.05,0,1,0,5.05,5.05A5.056,5.056,0,0,0,113.7,637.55Z" transform="translate(79.125 -218)"/>
      <path id="Trazado_388" data-name="Trazado 388" d="M68.912,671.6c-4.335,0-7.912,3.91-7.912,8.65h0c0,4.74,3.577,8.65,7.912,8.65h98.411c4.335,0,7.912-3.91,7.912-8.65h0c0-4.74-3.577-8.65-7.912-8.65Z" transform="translate(78.559 -218.95)" fill="#fff"/>
      <text id="University_association" data-name="University association" transform="translate(148.925 464.951)" font-size="10" font-family="SegoeUI-Semibold, Segoe UI" font-weight="600"><tspan x="0" y="0">University association</tspan></text>
      <path id="Trazado_389" data-name="Trazado 389" d="M68.912,671.35h98.411a7.778,7.778,0,0,1,5.766,2.629,9.4,9.4,0,0,1,0,12.542,7.778,7.778,0,0,1-5.766,2.629H68.912a7.778,7.778,0,0,1-5.766-2.629,9.4,9.4,0,0,1,0-12.542A7.778,7.778,0,0,1,68.912,671.35Zm98.411,17.3c4.225,0,7.662-3.768,7.662-8.4s-3.437-8.4-7.662-8.4H68.912c-4.225,0-7.662,3.768-7.662,8.4s3.437,8.4,7.662,8.4Z" transform="translate(78.559 -218.95)"/>
      <path id="Trazado_390" data-name="Trazado 390" d="M569.6,316.6c6.8,0,12.2,6,12.2,13.4,0,6.7-8.3,15.7-12.2,21.5-3.9-5.8-12.3-14.8-12.3-21.5,0-7.4,5.5-13.4,12.3-13.4Z" fill="#3885ff"/>
      <path id="Trazado_391" data-name="Trazado 391" d="M569.6,316.326a11.867,11.867,0,0,1,8.853,4.015A14.3,14.3,0,0,1,582.074,330c0,2.339-.977,5.137-2.986,8.555a95.358,95.358,0,0,1-5.992,8.61c-1.216,1.617-2.365,3.144-3.269,4.488l-.227.338-.227-.338c-.923-1.372-2.107-2.936-3.362-4.592a94.89,94.89,0,0,1-6-8.562c-2.008-3.394-2.985-6.174-2.985-8.5a14.215,14.215,0,0,1,3.672-9.66A12,12,0,0,1,569.6,316.326Zm0,34.687c.872-1.271,1.937-2.686,3.059-4.177,3.951-5.251,8.868-11.786,8.868-16.836,0-7.238-5.35-13.126-11.926-13.126-6.631,0-12.026,5.888-12.026,13.126,0,5.015,4.92,11.511,8.874,16.73C567.607,348.26,568.706,349.711,569.6,351.013Z"/>
      <path id="Trazado_392" data-name="Trazado 392" d="M569.6,333.8a5.1,5.1,0,1,0-5.1-5.1,5.121,5.121,0,0,0,5.1,5.1Z" fill="#fff"/>
      <path id="Trazado_393" data-name="Trazado 393" d="M569.6,334.074a5.4,5.4,0,1,1,3.794-1.58A5.334,5.334,0,0,1,569.6,334.074Zm0-10.2a4.826,4.826,0,1,0,4.826,4.826A4.832,4.832,0,0,0,569.6,323.874Z"/>
      <path id="Trazado_394" data-name="Trazado 394" d="M523.7,383.4c6.8,0,12.3,6,12.3,13.4,0,6.7-8.3,15.7-12.3,21.5-3.9-5.8-12.3-14.8-12.3-21.5.1-7.4,5.5-13.4,12.3-13.4Z" fill="#3885ff"/>
      <path id="Trazado_395" data-name="Trazado 395" d="M523.7,383.126a12,12,0,0,1,8.9,4.014,14.215,14.215,0,0,1,3.672,9.66c0,5.307-5.1,12.011-9.2,17.4-1.165,1.531-2.266,2.978-3.149,4.258l-.228.331-.224-.334c-.923-1.372-2.107-2.936-3.362-4.592a94.873,94.873,0,0,1-6-8.562c-2.008-3.394-2.985-6.174-2.985-8.5a14.56,14.56,0,0,1,3.709-9.66A11.923,11.923,0,0,1,523.7,383.126Zm0,34.691c.847-1.207,1.864-2.543,2.935-3.951,4.049-5.321,9.088-11.943,9.088-17.066,0-7.238-5.395-13.126-12.026-13.126s-11.927,5.767-12.026,13.13c0,5.012,4.92,11.507,8.874,16.727C521.708,415.061,522.808,416.514,523.7,417.817Z"/>
      <path id="Trazado_396" data-name="Trazado 396" d="M523.7,400.6a5.1,5.1,0,1,0-5.1-5.1,5.121,5.121,0,0,0,5.1,5.1Z" fill="#fff"/>
      <path id="Trazado_397" data-name="Trazado 397" d="M523.7,400.874a5.4,5.4,0,1,1,3.794-1.58A5.334,5.334,0,0,1,523.7,400.874Zm0-10.2a4.826,4.826,0,1,0,4.826,4.826A4.832,4.832,0,0,0,523.7,390.674Z"/>
      <path id="Trazado_398" data-name="Trazado 398" d="M468.2,407.1v16.2h62.6V407.1Z" transform="translate(0 -0.8)" fill="#fff"/>
      <text id="Eurocities" transform="translate(474.2 418.3)" font-size="11" font-family="SegoeUI-Semibold, Segoe UI" font-weight="600"><tspan x="0" y="0">Eurocities</tspan></text>
      <path id="Trazado_399" data-name="Trazado 399" d="M530.8,424.65H467.75V407.1h1.5v16.05H530.8Z" transform="translate(0 -1.6)"/>
      <path id="Trazado_400" data-name="Trazado 400" d="M532.7,392.1c6.8,0,12.2,6,12.2,13.4,0,6.7-8.3,15.7-12.2,21.5-3.9-5.8-12.3-14.8-12.3-21.5.1-7.4,5.6-13.4,12.3-13.4Z" fill="#3885ff"/>
      <path id="Trazado_401" data-name="Trazado 401" d="M532.7,391.86a11.833,11.833,0,0,1,8.828,4,14.268,14.268,0,0,1,3.612,9.636c0,2.332-.975,5.125-2.981,8.538a95.355,95.355,0,0,1-5.99,8.607c-1.217,1.617-2.366,3.145-3.27,4.489l-.2.3-.2-.3c-.923-1.373-2.108-2.937-3.363-4.593a94.851,94.851,0,0,1-6-8.559c-2.005-3.389-2.98-6.163-2.98-8.481a14.485,14.485,0,0,1,3.738-9.637A11.89,11.89,0,0,1,532.7,391.86Zm0,34.713c.877-1.281,1.952-2.71,3.086-4.217,3.954-5.255,8.874-11.8,8.874-16.856,0-7.257-5.365-13.16-11.96-13.16-6.552,0-11.962,5.905-12.06,13.164,0,5.024,4.924,11.524,8.881,16.748C530.691,423.8,531.8,425.262,532.7,426.573Z"/>
      <path id="Trazado_402" data-name="Trazado 402" d="M532.7,409.2a5.1,5.1,0,1,0-5.1-5.1,5.121,5.121,0,0,0,5.1,5.1Z" fill="#fff"/>
      <path id="Trazado_403" data-name="Trazado 403" d="M532.7,409.474a5.4,5.4,0,1,1,3.794-1.58A5.334,5.334,0,0,1,532.7,409.474Zm0-10.2a4.826,4.826,0,1,0,4.826,4.826A4.832,4.832,0,0,0,532.7,399.274Z"/>
      <path id="Trazado_404" data-name="Trazado 404" d="M94.374,588.75h47.708a8.465,8.465,0,0,1,6.159,2.7,9.374,9.374,0,0,1,0,12.885,8.465,8.465,0,0,1-6.159,2.7H94.374a8.465,8.465,0,0,1-6.159-2.7,9.374,9.374,0,0,1,0-12.885A8.465,8.465,0,0,1,94.374,588.75Zm47.708,17.775a8.648,8.648,0,0,0,0-17.275H94.374a8.648,8.648,0,0,0,0,17.275Z" transform="translate(74.45 -209.475)"/>
    </g>
  </g>
</svg>
