<svg xmlns="http://www.w3.org/2000/svg" xmlns:xlink="http://www.w3.org/1999/xlink" viewBox="0 0 321.03 78.64"><defs><style>.cls-1{fill:url(#Degradado_sin_nombre_12);}.cls-2{fill:url(#Degradado_sin_nombre_12-2);}.cls-3{fill:url(#Degradado_sin_nombre_12-3);}.cls-4{fill:url(#Degradado_sin_nombre_12-4);}.cls-5{fill:url(#Degradado_sin_nombre_12-5);}.cls-6{fill:url(#Degradado_sin_nombre_12-7);}.cls-7{fill:url(#Degradado_sin_nombre_12-8);}.cls-8{fill:url(#Degradado_sin_nombre_12-10);}.cls-9{fill:url(#Degradado_sin_nombre_12-11);}.cls-10{fill:url(#Degradado_sin_nombre_12-12);}.cls-11{fill:url(#Degradado_sin_nombre_12-13);}.cls-12{fill:url(#Degradado_sin_nombre_12-15);}.cls-13{fill:url(#Degradado_sin_nombre_12-16);}</style><linearGradient id="Degradado_sin_nombre_12" y1="39.32" x2="155.96" y2="39.32" gradientUnits="userSpaceOnUse"><stop offset="0" stop-color="#7e6af7"/><stop offset="1" stop-color="#72caad"/></linearGradient><linearGradient id="Degradado_sin_nombre_12-2" x1="327.14" y1="34.16" x2="164" y2="34.16" xlink:href="#Degradado_sin_nombre_12"/><linearGradient id="Degradado_sin_nombre_12-3" x1="327.14" y1="37.16" x2="164" y2="37.16" xlink:href="#Degradado_sin_nombre_12"/><linearGradient id="Degradado_sin_nombre_12-4" x1="327.14" y1="36.98" x2="164" y2="36.98" xlink:href="#Degradado_sin_nombre_12"/><linearGradient id="Degradado_sin_nombre_12-5" x1="327.14" y1="35.32" x2="164" y2="35.32" xlink:href="#Degradado_sin_nombre_12"/><linearGradient id="Degradado_sin_nombre_12-7" x1="327.14" y1="37.23" x2="164" y2="37.23" xlink:href="#Degradado_sin_nombre_12"/><linearGradient id="Degradado_sin_nombre_12-8" x1="327.14" y1="33.45" x2="164" y2="33.45" xlink:href="#Degradado_sin_nombre_12"/><linearGradient id="Degradado_sin_nombre_12-10" x1="327.14" y1="40.61" x2="164" y2="40.61" xlink:href="#Degradado_sin_nombre_12"/><linearGradient id="Degradado_sin_nombre_12-11" x1="327.14" y1="61.05" x2="163.99" y2="61.05" xlink:href="#Degradado_sin_nombre_12"/><linearGradient id="Degradado_sin_nombre_12-12" x1="327.14" y1="64.37" x2="164" y2="64.37" xlink:href="#Degradado_sin_nombre_12"/><linearGradient id="Degradado_sin_nombre_12-13" x1="327.14" y1="64.12" x2="164" y2="64.12" xlink:href="#Degradado_sin_nombre_12"/><linearGradient id="Degradado_sin_nombre_12-15" x1="327.14" y1="67.36" x2="164" y2="67.36" xlink:href="#Degradado_sin_nombre_12"/><linearGradient id="Degradado_sin_nombre_12-16" x1="327.14" y1="64.11" x2="164" y2="64.11" xlink:href="#Degradado_sin_nombre_12"/></defs><g id="Capa_2" data-name="Capa 2"><g id="Capa_1-2" data-name="Capa 1"><path id="SVGID" class="cls-1" d="M20.14,11.66a5.24,5.24,0,0,0-3.72,1.53h0a5.23,5.23,0,0,0-1.54,3.71,5.26,5.26,0,0,0,9,3.72.3.3,0,0,1,.08-.08,5.26,5.26,0,0,0-3.8-8.89ZM78,48.32h.14c2.41,0,5.11,0,6.67,8.94A91.29,91.29,0,0,0,87.69,70c1,3,2.14,5.23,3.17,4.9h0c1.55-.74,3-5.12,3.68-10.68.76-5.91.55-12.94-1.28-18.42a20.17,20.17,0,0,0-1-2.43A35.75,35.75,0,0,0,79.93,29.19q-1-.63-2-1.2c-.66.38-1.32.78-2,1.2A35.75,35.75,0,0,0,63.64,43.33a22,22,0,0,0-1,2.43c-1.82,5.48-2,12.51-1.27,18.42.71,5.56,2.12,9.94,3.68,10.68h0c1,.33,2.14-1.89,3.17-4.9a91.29,91.29,0,0,0,2.9-12.71c1.56-9,4.26-8.95,6.66-8.94ZM78.13,52h-.31c-.92,0-2,0-3,5.87a94.55,94.55,0,0,1-3,13.26c-1.7,5-4.16,8.47-7.86,7.23h0a2.82,2.82,0,0,1-.45-.18c-2.71-1.3-4.9-6.83-5.77-13.56-.81-6.38-.57-14,1.44-20.06a24.37,24.37,0,0,1,1.15-2.86A39.65,39.65,0,0,1,74,26.09l.06,0a30.18,30.18,0,0,0-11.11-2.29,64.51,64.51,0,0,0-18.14,2.07,43.41,43.41,0,0,0-15.64,8.08L29,34c.51.25,1,.52,1.49.81C35.2,37.63,38.74,41.61,42,45.77a36.15,36.15,0,0,1,6.24,11.76,37.77,37.77,0,0,1,1.49,10A14.72,14.72,0,0,1,49,73.31a3.67,3.67,0,0,1-1.76,2,3.21,3.21,0,0,1-2.92-.06,11,11,0,0,1-3.61-3.35c-1-1.29-2.09-2.83-3.2-4.38-3-4.2-6-8.39-6.05-8.39-.27.14.27,3.33.8,6.47.17,1,.35,2.06.49,3.1a10.13,10.13,0,0,1-1,6,4,4,0,0,1-1.92,1.78,3.27,3.27,0,0,1-2.94-.25c-1.27-.71-2.67-2.42-4.08-5.59a57.12,57.12,0,0,1-4.83-17,1.86,1.86,0,1,1,3.71-.29,52.94,52.94,0,0,0,4.51,15.84,10.2,10.2,0,0,0,2.32,3.73l0,0a6.33,6.33,0,0,0,.49-3.67c-.11-.89-.29-1.94-.47-3-.76-4.46-1.52-9,1.16-10.38,2.86-1.48,6.82,4,10.77,9.52,1.05,1.45,2.09,2.9,3.15,4.29a10.12,10.12,0,0,0,2,2.08A12.65,12.65,0,0,0,46,67.65a34.19,34.19,0,0,0-1.35-9.05A32.39,32.39,0,0,0,39,48c-3-3.85-6.22-7.52-10.42-10a23.4,23.4,0,0,0-2.88-1.43c-3.94,3.07-7.63,5.76-10.77,7.78-4.39,2.8-8,4.39-10.13,4-1.62-.26-3.28-1.85-4.14-4A9,9,0,0,1,0,40.63a8.11,8.11,0,0,1,1.36-4.15C3,34,6.26,32,12,31.34a31.55,31.55,0,0,1,13,1.09L26.83,31a47.19,47.19,0,0,1,16.94-8.76A68.2,68.2,0,0,1,63,20.05a34.27,34.27,0,0,1,15,3.72,34.27,34.27,0,0,1,15-3.72,68.2,68.2,0,0,1,19.18,2.2A47.19,47.19,0,0,1,129.13,31l1.78,1.42a31.53,31.53,0,0,1,13-1.09c5.75.62,9,2.68,10.64,5.14A8.2,8.2,0,0,1,156,40.63a9.15,9.15,0,0,1-.66,3.82c-.86,2.13-2.52,3.72-4.14,4-2.17.36-5.74-1.23-10.13-4-3.14-2-6.83-4.71-10.77-7.78a22.71,22.71,0,0,0-2.88,1.43c-4.2,2.47-7.45,6.14-10.42,10a32.39,32.39,0,0,0-5.61,10.56A34.19,34.19,0,0,0,110,67.65a12.37,12.37,0,0,0,.36,4.11,10.12,10.12,0,0,0,2-2.08c1.06-1.39,2.1-2.84,3.15-4.29,4-5.5,7.91-11,10.77-9.52,2.68,1.38,1.91,5.92,1.16,10.38-.18,1-.36,2.1-.48,3a6.32,6.32,0,0,0,.5,3.67l0,0a10.2,10.2,0,0,0,2.32-3.73,53.32,53.32,0,0,0,4.51-15.84,1.86,1.86,0,1,1,3.71.29,57.12,57.12,0,0,1-4.83,17c-1.41,3.17-2.82,4.88-4.08,5.59a3.29,3.29,0,0,1-3,.25,4,4,0,0,1-1.92-1.78,10.2,10.2,0,0,1-1-6c.14-1,.31-2.07.49-3.1.53-3.14,1.07-6.33.8-6.47,0,0-3,4.19-6.05,8.39-1.11,1.55-2.23,3.09-3.21,4.38a11,11,0,0,1-3.6,3.35,3.21,3.21,0,0,1-2.92.06,3.72,3.72,0,0,1-1.77-2,14.94,14.94,0,0,1-.68-5.78,37.77,37.77,0,0,1,1.49-10A36.3,36.3,0,0,1,114,45.77c3.22-4.16,6.76-8.14,11.49-10.92.48-.29,1-.56,1.48-.81l-.15-.13a43.41,43.41,0,0,0-15.64-8.08A64.51,64.51,0,0,0,93,23.76a30.18,30.18,0,0,0-11.11,2.29l0,0A39.59,39.59,0,0,1,95.67,41.73a26.24,26.24,0,0,1,1.15,2.86c2,6,2.25,13.68,1.43,20.06-.86,6.73-3,12.26-5.76,13.56a3.24,3.24,0,0,1-.45.18h0c-3.7,1.24-6.16-2.24-7.86-7.23a93.17,93.17,0,0,1-3-13.26c-1-5.87-2.06-5.87-3-5.87ZM12.93,41.26c2.51-1.61,5.36-3.64,8.39-5.95A30.09,30.09,0,0,0,12.41,35c-4.47.48-6.86,1.87-7.94,3.49a4.47,4.47,0,0,0-.75,2.28,5.38,5.38,0,0,0,.4,2.24c.39,1,.91,1.65,1.29,1.71,1.17.2,3.88-1.16,7.52-3.5Zm121.71-5.95c3,2.31,5.88,4.34,8.39,5.95,3.64,2.34,6.35,3.7,7.52,3.5.38-.06.9-.74,1.29-1.71a5.54,5.54,0,0,0,.4-2.24,4.57,4.57,0,0,0-.75-2.28c-1.08-1.62-3.47-3-7.94-3.49a30.09,30.09,0,0,0-8.91.27Zm1.18-27.38a9,9,0,0,1,6.35,15.32h0a9,9,0,0,1-12.7,0h0a9,9,0,0,1,0-12.69l.12-.11a9,9,0,0,1,6.24-2.52Zm3.71,5.27a5.27,5.27,0,0,0-7.35-.09l-.08.09a5.25,5.25,0,0,0,7.43,7.43h0a5.25,5.25,0,0,0,0-7.43ZM78,0a9,9,0,0,1,6.35,15.32h0a9,9,0,0,1-12.69,0h0a9,9,0,0,1,0-12.69l.11-.1A8.94,8.94,0,0,1,78,0Zm3.71,5.27a5.27,5.27,0,0,0-7.35-.09l-.08.09a5.25,5.25,0,0,0,7.43,7.43h0a5.26,5.26,0,0,0,0-7.43ZM13.8,10.56A9,9,0,0,1,26.6,23.15a1.14,1.14,0,0,1-.11.11,9,9,0,0,1-12.69,0h0a9,9,0,0,1,0-12.69Z"/><path class="cls-2" d="M186.8,38.56l-4.28-5.38V44.86h-4.91V23.46h3.27l6.86,9,6.23-9h3.15v21.4h-4.94V33.53l-3.43,4.75Z"/><path class="cls-3" d="M215.53,38.56h-9.79q.69,2.69,4,2.68a8.73,8.73,0,0,0,4.31-1.2l1.38,3.43a8.3,8.3,0,0,1-2.62,1.26,11.59,11.59,0,0,1-3.42.47,9.69,9.69,0,0,1-6.59-2.1,7.41,7.41,0,0,1-2.41-5.86,8.8,8.8,0,0,1,1-4.29,6.93,6.93,0,0,1,2.82-2.83,8.33,8.33,0,0,1,4.13-1,7,7,0,0,1,3.94,1.07,6.6,6.6,0,0,1,2.4,2.87,9.67,9.67,0,0,1,.81,4Zm-9.85-2.8h5.16a3.6,3.6,0,0,0-.84-1.87,2.25,2.25,0,0,0-1.74-.71,2.39,2.39,0,0,0-1.75.71A3,3,0,0,0,205.68,35.76Z"/><path class="cls-4" d="M222.8,44.86h-4.94V29.6h3l.85,1.6a13.25,13.25,0,0,1,3-1.53,9.31,9.31,0,0,1,3.07-.58,4.91,4.91,0,0,1,4.11,1.62,7,7,0,0,1,1.27,4.42v9.73h-4.94V35.51a2.92,2.92,0,0,0-.47-1.74,1.66,1.66,0,0,0-1.42-.65,7.86,7.86,0,0,0-3.58,1.32Z"/><path class="cls-5" d="M245.55,29.94l.88,3.84h-4.28v5.1a2.7,2.7,0,0,0,.53,1.73,1.8,1.8,0,0,0,1.48.66,4.28,4.28,0,0,0,2-.5l1.42,3.43a5,5,0,0,1-1.64.78,6.83,6.83,0,0,1-2,.35,7.25,7.25,0,0,1-4.75-1.51,5.2,5.2,0,0,1-1.86-4.28V33.78H235V29.94h2.2V26.07l4.91-.75v4.62Z"/><path class="cls-3" d="M264.35,41.49a7.21,7.21,0,0,1-3,2.75,9.65,9.65,0,0,1-4.37,1,9.94,9.94,0,0,1-4.38-.92,6.89,6.89,0,0,1-2.94-2.74,8.56,8.56,0,0,1-1.05-4.36,8.25,8.25,0,0,1,1.08-4.28,7.27,7.27,0,0,1,3-2.8,9.46,9.46,0,0,1,4.36-1,9.62,9.62,0,0,1,4.39,1,6.94,6.94,0,0,1,3,2.79,8.62,8.62,0,0,1,1.05,4.37A8.09,8.09,0,0,1,264.35,41.49Zm-4.93-1.42a4.19,4.19,0,0,0,.92-2.83,4.5,4.5,0,0,0-.9-2.89,2.88,2.88,0,0,0-2.38-1.14,3,3,0,0,0-2.45,1.09,4.3,4.3,0,0,0-.91,2.88,4.35,4.35,0,0,0,.89,2.88,3.25,3.25,0,0,0,4.83,0Z"/><path class="cls-6" d="M272.7,44.86h-4.94V29.63h2.52l1.38,2.17a13.67,13.67,0,0,1,2.55-1.53,6.3,6.3,0,0,1,2.61-.67l1,3.93a6.48,6.48,0,0,0-2.53.61,9.9,9.9,0,0,0-2.57,1.59Z"/><path class="cls-7" d="M282.2,27.49a2.72,2.72,0,0,1-1.9-4.64,2.6,2.6,0,0,1,1.9-.81,2.72,2.72,0,0,1,1.94,4.65A2.67,2.67,0,0,1,282.2,27.49Zm-2.45,17.37V29.6h4.94V44.86Z"/><path class="cls-4" d="M292.9,44.86H288V29.6H291l.85,1.6a13.53,13.53,0,0,1,3-1.53,9.27,9.27,0,0,1,3.07-.58,4.89,4.89,0,0,1,4.1,1.62,7,7,0,0,1,1.28,4.42v9.73h-4.94V35.51a2.92,2.92,0,0,0-.47-1.74,1.66,1.66,0,0,0-1.42-.65,7.89,7.89,0,0,0-3.59,1.32Z"/><path class="cls-8" d="M321,29.63V45.46A6.15,6.15,0,0,1,320,49a6.43,6.43,0,0,1-2.89,2.31,10.83,10.83,0,0,1-4.33.8,15.56,15.56,0,0,1-3.34-.47,9.79,9.79,0,0,1-3.3-1.29l1.48-3.46a11,11,0,0,0,4.88,1.26,4.23,4.23,0,0,0,2.59-.74,2.33,2.33,0,0,0,1-2v-.85a6.81,6.81,0,0,1-2.8.63,7.72,7.72,0,0,1-5.66-2.07,7.89,7.89,0,0,1-2.11-5.89,8.07,8.07,0,0,1,2.14-6,7.83,7.83,0,0,1,5.82-2.16,6.07,6.07,0,0,1,2.17.43,7.24,7.24,0,0,1,2.05,1.21l.82-1.13Zm-4.94,10.76V33.88a4.07,4.07,0,0,0-2.39-.79,2.66,2.66,0,0,0-2.23,1.13,4.84,4.84,0,0,0-.85,3,4.66,4.66,0,0,0,.85,3,2.8,2.8,0,0,0,2.36,1.09A3.93,3.93,0,0,0,316.09,40.39Z"/><path class="cls-9" d="M177.61,71.75V50.36h12l.41,2.32h-9.44v7h7.27l.41,2.33h-7.68v7.36h10.16l.41,2.36Z"/><path class="cls-10" d="M204,56.49h3V71.75h-2.11l-.53-2a11.22,11.22,0,0,1-2.77,1.81,7.33,7.33,0,0,1-3.06.71,4.42,4.42,0,0,1-3.69-1.54,6.56,6.56,0,0,1-1.21-4.16V56.49h3v9.79a4.73,4.73,0,0,0,.55,2.53,2.13,2.13,0,0,0,2,.87,5,5,0,0,0,2.33-.68A13.31,13.31,0,0,0,204,67.25Z"/><path class="cls-11" d="M213.77,71.75h-3V56.49h1.7l1,2.49a14.11,14.11,0,0,1,2.53-1.7,5.55,5.55,0,0,1,2.57-.79l.66,2.43a5.84,5.84,0,0,0-2.71.8,12,12,0,0,0-2.7,1.93Z"/><path class="cls-11" d="M234.75,68.32a6.82,6.82,0,0,1-2.69,2.84,8,8,0,0,1-4.07,1,7.78,7.78,0,0,1-4-1,6.69,6.69,0,0,1-2.63-2.84,9.25,9.25,0,0,1-.91-4.21,9,9,0,0,1,.94-4.19,6.88,6.88,0,0,1,2.67-2.83,8,8,0,0,1,4.06-1,7.84,7.84,0,0,1,4,1,6.81,6.81,0,0,1,2.64,2.83,9.17,9.17,0,0,1,.93,4.22A8.94,8.94,0,0,1,234.75,68.32ZM231.34,68a6.1,6.1,0,0,0,1.27-3.87,6.3,6.3,0,0,0-1.19-4,4,4,0,0,0-3.31-1.53,4.06,4.06,0,0,0-3.32,1.55,6.12,6.12,0,0,0-1.27,3.87,6.27,6.27,0,0,0,1.2,4,4,4,0,0,0,3.3,1.52A4,4,0,0,0,231.34,68Z"/><path class="cls-12" d="M248.93,57.09a6.66,6.66,0,0,1,2.63,2.85,9.64,9.64,0,0,1,.91,4.29,8.8,8.8,0,0,1-.95,4.16,6.75,6.75,0,0,1-2.67,2.78,7.91,7.91,0,0,1-4,1,5.69,5.69,0,0,1-1.46-.22,6.78,6.78,0,0,1-1.65-.66v7l-3,.34V56.49h1.7l.66.95a8.91,8.91,0,0,1,2-1,5.71,5.71,0,0,1,1.81-.36A7.84,7.84,0,0,1,248.93,57.09Zm-.74,11a5.93,5.93,0,0,0,1.2-3.83,6.46,6.46,0,0,0-1.19-4.05,3.92,3.92,0,0,0-3.31-1.55,4.71,4.71,0,0,0-3.15,1.1v8.78a4.9,4.9,0,0,0,3.15,1A4,4,0,0,0,248.19,68.09Z"/><path class="cls-13" d="M268.33,64.8H257.5a5.59,5.59,0,0,0,1.44,3.52,4.89,4.89,0,0,0,3.69,1.29,6.54,6.54,0,0,0,2.09-.3,23.06,23.06,0,0,0,2.51-1l.94,2.2a10.59,10.59,0,0,1-5.54,1.67A8.2,8.2,0,0,1,256.5,70a8,8,0,0,1-2.14-5.85,9.49,9.49,0,0,1,.88-4.19,6.56,6.56,0,0,1,2.53-2.83,7.34,7.34,0,0,1,3.89-1,5.85,5.85,0,0,1,5,2.22A9.09,9.09,0,0,1,268.33,64Zm-10.76-2h7.83c-.4-2.72-1.68-4.09-3.84-4.09a3.61,3.61,0,0,0-2.75,1.09A5,5,0,0,0,257.57,62.75Z"/></g></g></svg>